<?xml version="1.0" encoding="utf-8"?>
<!-- Generator: Adobe Illustrator 16.0.0, SVG Export Plug-In . SVG Version: 6.00 Build 0)  -->
<!DOCTYPE svg PUBLIC "-//W3C//DTD SVG 1.1//EN" "http://www.w3.org/Graphics/SVG/1.1/DTD/svg11.dtd">
<svg version="1.1" id="Layer_1" xmlns="http://www.w3.org/2000/svg" xmlns:xlink="http://www.w3.org/1999/xlink" x="0px" y="0px"
	 width="1024px" height="1024px" viewBox="0 0 1024 1024" enable-background="new 0 0 1024 1024" xml:space="preserve">
<g id="icomoon-ignore">
</g>
<path d="M500.545,276.546c-6.248,6.595-11.107,13.538-11.107,15.62c0,4.86-11.455,4.513-17.01-1.041
	c-3.815-3.471-4.513-3.124-2.43,2.083c1.041,3.471,2.083,12.496,2.083,20.133c0,7.289,1.735,13.538,3.471,13.538
	c2.083,0,3.472-3.818,3.472-8.678c0-6.248,1.735-8.678,6.941-8.678c3.818,0,7.984-2.432,9.025-5.208
	c1.388-3.124,6.248-7.637,11.105-10.066c11.108-5.901,22.219-1.736,28.467,10.066c2.43,4.513,6.248,7.291,9.022,6.25
	c3.474-1.39,4.86,1.041,4.86,7.287c0,5.557,2.083,9.025,5.205,9.025c3.817,0,5.207-3.818,5.207-13.538
	c0-7.637,1.041-16.662,2.082-20.133c2.084-5.207,1.391-5.554-2.43-2.083c-2.43,2.43-6.595,4.513-9.371,4.513
	c-5.207,0-14.58-8.331-14.58-13.191c0-4.165-15.271-18.05-19.785-18.05C513.041,264.396,506.446,269.95,500.545,276.546
	L500.545,276.546z"/>
<path d="M444.313,346.424c0,1.389,2.082,5.901,4.859,9.372c2.777,3.818,5.207,15.967,5.901,26.729l1.388,19.785l-9.372-9.024
	c-9.024-8.678-9.719-8.678-9.719-2.43c0,3.815,1.735,8.678,3.817,10.761s4.858,9.022,6.246,15.62
	c2.433,11.802,14.232,18.744,14.232,8.331c0-3.124,2.43-5.557,5.207-5.557c2.775,0,5.207,2.083,5.207,4.165
	c0,4.516,17.009-14.229,17.354-19.092c0-1.388-4.513-2.43-10.414-2.43c-9.719,0-10.414-1.041-10.414-11.804
	c0-12.494,4.86-19.093,9.025-12.147c1.389,2.43,5.207,0.347,10.414-5.901c4.514-5.554,7.984-11.105,8.331-12.843
	c0-1.388-7.637-2.43-16.662-2.43c-12.496,0-18.744-1.736-23.257-6.942C450.213,343.646,444.313,341.564,444.313,346.424
	L444.313,346.424z"/>
<path d="M504.711,360.656c-5.9,3.471-13.538,12.496-17.009,19.786c-4.86,9.719-6.942,11.802-7.984,7.289
	c-1.735-9.025-7.637-6.942-7.637,2.774c0,7.639,1.388,8.679,11.802,8.679c6.248,0,15.967-2.081,21.174-4.858
	c8.678-4.514,11.108-4.514,19.439,0c5.207,2.777,15.273,4.858,22.216,4.858c10.761,0,12.149-1.04,12.149-8.679
	c0-9.719-5.901-11.802-7.637-2.774c-1.041,4.513-3.125,2.774-6.942-6.248c-4.513-10.066-21.868-27.423-27.771-27.423
	C516.166,354.061,510.612,357.186,504.711,360.656z"/>
<path d="M166.617,391.55c0,2.083,1.736,4.86,3.471,5.901c2.083,1.041,3.471,8.331,3.471,15.967c0,9.719,1.388,13.538,5.207,13.538
	c3.471,0,5.207-3.471,5.207-10.414c0-5.901,1.388-10.414,3.124-10.414c1.388,0,2.083,3.818,1.041,8.678
	c-2.083,11.455,6.248,14.579,18.397,6.598c8.331-5.557,9.719-5.557,22.216,0.347c15.62,6.941,22.563,4.513,20.133-7.289
	c-0.694-4.513,0-8.331,1.388-8.331c1.736,0,3.124,4.86,3.124,10.761c0,14.579,7.984,11.455,10.761-4.165
	c1.388-6.595,3.471-14.926,4.86-18.741c2.777-6.598,2.777-6.598-4.165-1.041c-3.818,3.471-11.108,6.248-15.967,6.248
	c-10.066,0-11.802,3.121-5.554,9.369c2.083,2.083,3.124,5.901,2.43,8.681c-1.041,2.43-4.165-0.694-7.289-7.64
	c-8.331-17.354-17.703-22.563-28.117-15.617c-4.165,2.774-9.719,9.369-12.149,14.229c-2.083,5.207-4.86,8.331-5.901,7.289
	s-0.347-5.207,2.083-9.025c3.471-6.595,2.777-7.286-5.554-7.286c-5.207,0-12.496-2.433-15.967-5.901
	c-3.471-3.124-6.248-3.818-6.248-1.736h-0.002V391.55z"/>
<path d="M497.074,404.393c-5.555,4.86-13.191,14.579-16.315,21.521c-5.901,12.148-6.248,12.496-9.022,5.207
	c-4.165-11.455-6.598-9.372-6.598,6.595v14.232l20.133-2.083c10.764-1.041,23.604-2.083,28.467-2.083
	c4.857,0,17.701,1.041,28.811,2.083l19.786,2.083l-0.347-15.273c0-13.188-0.35-13.885-3.473-6.248
	c-3.472,8.331-3.472,8.331-11.803-6.595C530.398,395.368,515.125,389.12,497.074,404.393L497.074,404.393z"/>
<path d="M159.675,421.055c0,3.124,1.736,6.598,3.471,7.64c2.083,1.041,3.471,5.207,3.471,9.022c0,3.471,1.736,6.596,4.165,6.596
	c2.083,0,2.777,1.041,1.736,2.082c-1.388,1.391-4.513,0.35-7.637-2.082c-3.124-2.431-6.595-3.125-7.984-1.734
	c-1.388,1.388-0.347,3.471,2.083,4.165c2.43,1.041,3.818,7.637,3.471,17.703c-0.347,14.579-0.694,14.926-1.736,3.815
	c-0.694-6.939-4.513-15.619-8.331-18.744c-6.595-6.247-6.595-5.898-6.595,28.813v35.406h46.167l-6.942-7.984
	c-7.984-7.983-12.149-29.505-6.248-30.546c2.083,0,3.124,4.513,2.43,10.414c-1.041,10.064-0.694,10.761,10.414,10.761
	c6.248,0,14.579-2.43,18.05-5.207c5.901-4.513,7.637-4.513,14.579,0c4.513,2.777,12.843,5.207,18.744,5.207
	c8.678,0,10.414-1.388,10.066-7.981c-0.347-5.557-0.694-6.248-2.083-1.736c-2.43,9.719-6.942,7.289-9.372-4.86
	c-2.43-12.843-14.579-27.074-23.257-27.074c-9.372,0-20.48,11.107-25.687,26.033c-3.818,11.108-5.207,12.496-6.942,7.64
	c-1.736-3.818-0.347-8.681,3.124-12.496c7.637-8.331,6.942-10.764-3.124-10.764c-7.984,0-8.678-1.388-8.678-14.229
	c0-12.149,0.694-13.886,6.595-11.802c4.165,1.041,7.289,0,8.678-3.474c1.388-3.815-0.347-5.207-7.289-5.207
	c-5.207,0-12.843-3.471-17.356-7.637C161.063,416.542,159.674,416.195,159.675,421.055L159.675,421.055z"/>
<path d="M584.895,426.956c-3.471,3.818-9.022,6.942-12.843,6.942c-4.513,0-6.248,2.774-6.248,10.414
	c0,10.063-0.691,10.411-15.62,10.411h-15.967l6.248,8.681c5.555,7.981,8.331,8.678,28.117,7.981c11.802-0.691,21.521,0,21.521,1.391
	c0,1.733-4.516,2.774-10.414,2.774c-10.066,0-10.414,0.694-10.414,15.62v15.62h31.24v-31.588c0-27.771-0.693-31.241-5.207-27.422
	c-4.515,3.816-5.207,2.774-5.207-4.516c0-4.857,1.734-10.063,3.472-11.105c4.165-2.777,4.513-12.149,0.694-12.149
	C592.531,420.013,588.366,423.137,584.895,426.956L584.895,426.956z"/>
<path d="M270.753,443.965c0,1.736-3.124,4.514-6.942,5.554c-3.818,1.041-6.942,5.207-6.942,9.025c0,4.86-2.43,6.595-8.678,6.595
	c-7.984,0-8.331,0.694-5.207,7.289c3.124,5.557,4.86,6.248,9.025,2.777c5.207-4.165,5.554-3.471,6.248,12.496
	c0.347,6.939-2.43,12.843-8.331,18.05l-8.678,7.637l23.604,0.35h23.257v-35.062c0-30.894-0.694-34.712-5.207-30.894
	c-3.124,2.43-5.207,10.063-5.207,17.703c0,7.637-1.388,13.538-3.124,13.538c-1.736,0-2.777-2.777-2.083-6.248
	c3.818-18.397,4.513-31.938,1.388-31.938C272.14,440.84,270.752,442.229,270.753,443.965L270.753,443.965z"/>
<path d="M426.956,473.47v33.323h55.886l13.191-13.885c7.289-7.637,15.271-13.885,17.703-13.885c2.43,0,10.414,6.248,17.703,13.885
	c9.719,10.414,15.967,13.885,23.948,13.885c9.722,0,10.414-0.694,10.414-13.885c0-16.662-2.43-17.356-8.678-2.777
	c-4.859,11.802-5.9,11.108-10.414-9.025c-2.774-12.493-22.91-33.32-32.629-33.32c-11.455,0-31.241,22.216-33.671,38.183
	c-2.777,16.315-6.598,17.703-10.066,4.515c-2.775-11.804-7.289-14.928-21.521-14.928c-11.108,0-11.455-0.691-11.455-13.538
	c0-7.637-2.083-15.271-5.207-17.7C427.65,440.494,426.956,443.965,426.956,473.47L426.956,473.47z"/>
<path d="M752.553,445.006c4.165,5.554,7.289,34.021,3.471,34.021c-1.733,0-2.774-5.207-2.774-11.455
	c0-7.289-2.777-14.232-6.942-18.052c-6.939-6.246-6.939-5.899-6.939,28.813v35.406h25.34l24.993-0.35l-9.372-7.637
	c-6.942-5.554-9.719-11.107-9.719-18.396c0-12.846,3.123-16.662,9.022-11.455c3.124,2.774,5.207,1.733,8.331-3.474
	c3.124-6.595,2.777-7.289-5.207-7.289c-5.554,0-8.678-2.083-8.678-5.554c0-3.124-3.473-8.331-7.639-12.146
	C757.414,440.148,747,438.412,752.553,445.006L752.553,445.006z"/>
<path d="M861.896,447.436c-4.516,3.818-7.984,9.025-7.984,12.149c0,3.818-3.124,5.554-9.025,5.554c-6.939,0-8.678,1.391-6.939,5.557
	c1.041,3.124,2.08,5.898,2.08,6.595s3.125,0.347,6.942-0.694c5.901-1.733,6.942,0,6.942,10.414c0,9.372-2.43,13.885-9.372,19.439
	l-9.719,6.939l25.34,0.35h24.993V478.33c0-34.712,0-35.059-6.596-28.813c-3.817,3.124-7.639,11.805-8.33,18.744l-1.391,12.496
	l-0.347-14.579c-0.349-7.981,1.041-15.62,2.774-16.662c4.166-2.43,4.516-8.678,1.041-8.678
	C870.575,441.188,866.063,443.964,861.896,447.436L861.896,447.436z"/>
<path d="M409.6,492.908v41.654h55.539v-24.301h-41.651v-25.34c0-21.174-1.041-25.687-6.942-29.505
	c-6.939-4.165-6.939-3.471-6.939,37.489L409.6,492.908L409.6,492.908z"/>
<path d="M610.234,456.114c-4.859,3.471-6.247,9.719-6.247,29.505v24.645h-41.654v24.299h55.539V492.91
	c0-22.91-0.347-41.654-0.694-41.654c-0.691,0-3.815,2.43-6.939,4.86L610.234,456.114L610.234,456.114z"/>
<path d="M128.434,465.833c0,8.678-1.041,10.066-3.471,6.248c-2.43-3.471-3.471,2.43-3.471,19.786c0,16.662,1.388,25.34,4.513,26.381
	c2.43,1.041,1.736,2.083-1.736,2.083c-5.554,0.347-6.248-3.124-6.248-25.34c0-14.232-1.388-27.075-3.471-28.117
	c-2.083-1.388-3.471,10.066-3.471,32.282v34.365l15.967,2.43c9.025,1.041,22.91,2.083,31.241,2.083
	c14.579,0,15.273-0.347,15.273-10.414s-0.694-10.414-15.62-10.414h-15.62v-27.075c0-22.91-1.041-27.422-6.942-31.241
	c-6.248-3.815-6.942-3.471-6.942,6.942L128.434,465.833z"/>
<path d="M796.984,465.486c-4.86,5.898-9.025,13.538-9.025,17.009s-1.388,7.637-3.471,8.678c-1.736,1.041-3.471-0.347-3.471-3.124
	s-1.391-6.248-3.474-7.289c-2.083-1.388-3.471,1.736-3.471,6.598c0,7.981,1.388,9.022,12.146,9.022
	c6.595,0,15.273-2.083,19.093-4.165c5.556-3.471,8.33-3.471,13.887,0c3.816,2.083,12.496,4.165,19.092,4.165
	c11.105,0,12.146-1.041,12.146-9.719l-0.347-9.372l-4.513,8.331l-4.86,8.678l-2.083-10.761
	c-2.775-12.843-17.703-28.813-26.381-28.813C808.787,454.726,801.844,459.586,796.984,465.486L796.984,465.486z"/>
<path d="M892.789,458.891c-2.43,2.433-4.165,14.929-4.165,31.241v27.075h-17.009c-10.414,0-18.051,1.736-19.092,4.165
	c-1.736,3.471-2.433,3.471-4.165,0c-1.041-2.083-3.818-4.165-5.901-4.165c-2.777,0-2.43,1.388,0.348,4.165
	c4.859,4.86,5.9,18.05,1.041,15.271c-1.389-1.041-3.816-6.595-4.858-11.802c-2.777-12.843-18.397-31.935-26.729-31.935
	s-23.949,19.092-26.728,31.588c-2.083,11.105-6.597,13.188-9.025,3.816c-1.041-3.125-1.735,0-2.083,6.941l-0.347,13.191
	l42.694,0.691c23.259,0,37.144,1.041,31.24,1.736l-11.453,1.388v59.011c0,36.797,1.389,58.662,3.472,58.662
	s3.471-12.843,3.471-31.238c0-30.896,0-31.241,8.678-31.241c8.679,0,8.679,0.347,8.679,31.241v31.238h31.242V624.81
	c0-27.769-1.39-45.125-3.473-45.125c-1.734,0-3.471-1.388-3.471-3.471c0-1.736,2.43-2.43,5.206-1.388
	c4.166,1.734,5.206-0.694,5.206-10.762c0-11.107-0.692-12.495-6.94-10.414c-9.719,3.125-8.678-3.817,1.041-7.288
	c5.556-2.083,2.083-3.124-13.885-3.818c-12.149-0.693-21.868-2.43-21.868-3.818c0-1.388,10.064-1.733,22.563-1.388l22.563,1.388v-42
	c0-23.258-0.349-42.002-1.041-42.002s-2.776,1.736-5.207,4.165L892.789,458.891z"/>
<path d="M305.464,496.38v20.827h100.664v-41.654H305.464V496.38z"/>
<path d="M621.342,496.38v20.827h100.664v-41.654H621.342V496.38z"/>
<path d="M502.628,490.479c-5.207,4.166-13.538,16.315-18.05,26.729c-5.555,12.496-8.678,16.315-8.678,11.455
	c-0.694-15.62-7.289-11.802-7.289,3.818v15.967h90.251l-0.347-16.662c-0.35-15.967-0.35-15.967-4.516-6.595l-4.165,9.372
	l-7.981-19.095c-6.942-16.313-20.828-32.976-27.771-32.976C513.043,482.494,507.836,485.965,502.628,490.479L502.628,490.479z"/>
<path d="M205.147,500.198c-4.513,4.165-11.108,13.885-14.579,21.868c-6.248,13.885-6.248,13.885-9.719,5.554
	c-3.124-7.984-3.471-7.289-3.471,5.901l-0.347,14.926h79.837v-13.191c-0.347-12.496-0.347-12.843-4.86-4.513l-4.86,8.678
	l-2.43-11.455c-2.43-12.146-20.479-35.059-27.422-35.059c-2.43,0-7.984,3.471-12.149,7.289V500.198z"/>
<path d="M734.156,544.976c1.041,1.736,4.859,3.474,7.984,3.818c3.815,0,4.162,1.041,1.733,2.083
	c-3.471,1.041-4.513,16.662-4.513,60.399v58.663h38.183v-31.241c0-29.158,0.349-31.241,6.942-31.241s7.287-1.736,6.246-27.075
	l-1.041-26.728l-11.106-1.041c-7.981-0.694-10.414-2.433-9.022-6.248c1.389-3.818-2.084-4.86-18.053-4.86
	C739.363,541.505,732.768,542.893,734.156,544.976L734.156,544.976z"/>
<path d="M145.79,610.929v59.013h20.827V607.46l9.719,0.347c7.984,0.694,8.331,0.694,1.736,2.083
	c-7.637,1.391-7.984,3.124-7.984,30.896v29.158h20.827V551.92H145.79V610.929L145.79,610.929z"/>
<path d="M202.717,556.431c-0.694,2.433-1.041,34.021-0.694,70.118l1.041,65.953l11.455,1.041l11.108,1.041V551.918h-10.414
	C209.312,551.918,203.758,554.001,202.717,556.431z"/>
<path d="M235.346,554.348c-5.554,1.391-6.248,7.64-6.248,70.813c0,45.473,1.041,68.729,3.471,67.341
	c2.083-1.041,3.471-6.595,3.471-12.496c0-6.595,1.736-10.063,5.207-10.063c4.165,0,5.207-5.557,5.207-29.507
	c0-23.949-1.041-29.506-5.207-29.506c-2.777,0-5.207-1.388-5.207-3.124c0-1.733,3.124-2.43,6.942-1.388
	c6.248,1.736,6.942,4.86,6.942,32.629v30.896h38.183V551.92l-23.257,0.347c-13.191,0.35-26.381,1.041-29.505,2.083L235.346,554.348z
	"/>
<path d="M292.968,556.778c-1.041,2.774-1.388,7.981-0.694,11.455c1.041,5.898,6.248,6.248,65.258,6.248h64.217v-20.827
	l-63.523-1.041C305.117,551.919,294.703,552.613,292.968,556.778L292.968,556.778z"/>
<path d="M426.956,610.929v59.013h8.678c8.679,0,8.679-0.35,8.679-31.241c0-30.896,0-31.241,8.68-31.241
	c8.678,0,8.678,0.347,8.678,31.241c0,18.396,1.391,31.241,3.473,31.241c2.084,0,3.472-21.868,3.472-59.013v-59.01H426.96v59.01
	H426.956z"/>
<path d="M500.545,622.037l1.041,70.465l11.455,1.041l11.107,1.041V551.918h-24.297L500.545,622.037L500.545,622.037z"/>
<path d="M558.861,610.929c0,37.145,1.388,59.013,3.471,59.013s3.471-12.846,3.471-31.241c0-30.896,0-31.241,8.678-31.241
	c8.681,0,8.681,0.347,8.681,31.241c0,30.894,0,31.241,8.678,31.241h8.679V551.919h-41.652v59.01H558.861z"/>
<path d="M603.986,564.068v12.146H732.42v-24.298H603.986V564.068z"/>
<path d="M801.844,622.731v71.506h24.299l-0.692-70.466l-1.041-70.117l-11.108-1.041l-11.455-1.041L801.844,622.731L801.844,622.731z
	"/>
<path d="M291.58,624.814c0,27.769,1.388,45.125,3.471,45.125s3.471-12.846,3.471-31.241v-31.241h20.48l1.388,31.935l1.041,32.282
	l0.694-32.282l0.694-31.935h20.48l1.388,31.935l1.041,32.282l0.694-32.282l0.694-31.935h20.479l1.388,31.935l1.041,32.282
	l0.694-32.282l0.694-31.935h20.48l1.388,31.935l1.041,32.282l0.694-32.282l0.694-31.935h20.827v31.241
	c0,18.396,1.388,31.241,3.471,31.241s3.472-17.356,3.472-45.125v-45.125H291.574v45.125H291.58z"/>
<path d="M603.986,624.814c0,27.769,1.388,45.125,3.471,45.125s3.471-12.846,3.471-31.241c0-30.896,0-31.241,8.678-31.241
	c8.681,0,8.681,0.347,8.681,31.241c0,18.396,1.388,31.241,3.471,31.241s3.474-12.846,3.474-31.241v-31.241h20.479l1.389,31.935
	l1.041,32.282l0.693-32.282l0.693-31.935h20.479l1.389,31.935l1.041,32.282l0.693-32.282l0.694-31.935H704.3l1.388,31.935
	l1.041,32.282l0.694-32.282l0.694-31.935h20.479l1.389,31.935c0.693,27.423,1.041,25.343,1.735-13.885l0.694-45.82H603.98v45.125
	L603.986,624.814z"/>
<path d="M298.522,677.229c0,2.082,1.736,6.597,3.471,10.413c3.471,5.901,7.984,6.598,55.539,6.598
	c47.555,0,52.065-0.694,55.539-6.598c7.289-13.885,5.207-14.229-55.539-14.229C317.96,673.41,298.522,674.798,298.522,677.229z"/>
<path d="M607.458,675.146c0,0.691,1.736,5.554,4.165,10.411l3.818,8.681h112.466l3.817-8.681c2.431-4.857,4.163-9.719,4.163-10.411
	c0-1.041-28.811-1.736-64.217-1.736c-35.403,0-64.217,0.691-64.217,1.736H607.458z"/>
<path d="M194.386,760.19v62.479h41.654V697.708h-41.654V760.19L194.386,760.19z"/>
<path d="M499.852,760.19v62.479h24.297V697.708h-24.297V760.19L499.852,760.19z"/>
<path d="M801.844,760.19v62.479h24.299V697.708h-24.299V760.19L801.844,760.19z"/>
<path d="M239.512,713.329v8.678h249.926v-17.354H239.512V713.329L239.512,713.329z"/>
<path d="M534.563,713.329v8.678H787.96v-17.354H534.563V713.329L534.563,713.329z"/>
<path d="M65.953,737.627v12.149h124.963v-24.298H65.953V737.627z"/>
<path d="M239.512,737.627v12.149h249.926v-24.298H239.512V737.627z"/>
<path d="M535.257,736.586l1.041,11.455l126.004,1.041l125.657,0.694v-24.298H534.215L535.257,736.586L535.257,736.586z"/>
<path d="M836.557,737.627v12.149H961.52v-24.298H836.557V737.627z"/>
<path d="M34.712,768.868v15.62h156.203v-31.241H34.712V768.868L34.712,768.868z"/>
<path d="M239.512,768.868v15.62h249.926v-31.241H239.512V768.868L239.512,768.868z"/>
<path d="M534.563,768.868v15.62H787.96v-31.241H534.563V768.868L534.563,768.868z"/>
<path d="M836.557,768.868v15.62h156.202v-31.241H836.557V768.868L836.557,768.868z"/>
<path d="M3.471,805.315v17.354h187.444v-34.712H3.471V805.315L3.471,805.315z"/>
<path d="M239.512,805.315v17.354h249.926v-34.712H239.512V805.315L239.512,805.315z"/>
<path d="M536.993,790.389c-1.388,1.041-2.431,9.025-2.431,17.356v14.926H787.96v-34.712H663.691
	C595.311,787.959,538.035,789,536.993,790.389L536.993,790.389z"/>
<path d="M836.557,805.315v17.354H1024v-34.712H836.557V805.315L836.557,805.315z"/>
<path d="M504.711,310.656c-5.9,3.471-13.538,12.496-17.009,19.786c-4.86,9.719-6.942,11.802-7.984,7.289
	c-1.735-9.025-7.637-6.942-7.637,2.774c0,7.639,1.388,8.679,11.802,8.679c6.248,0,15.967-2.081,21.174-4.858
	c8.678-4.514,11.108-4.514,19.439,0c5.207,2.777,15.273,4.858,22.216,4.858c10.761,0,12.149-1.04,12.149-8.679
	c0-9.719-5.901-11.802-7.637-2.774c-1.041,4.513-3.125,2.774-6.942-6.248c-4.513-10.066-21.868-27.423-27.771-27.423
	C516.166,304.061,510.612,307.186,504.711,310.656z"/>
<path d="M201.676,428.773c-4.86,5.898-9.025,13.536-9.025,17.009c0,3.471-1.388,7.637-3.471,8.678
	c-1.736,1.041-3.471-0.347-3.471-3.124s-1.389-6.248-3.472-7.289c-2.083-1.388-3.471,1.736-3.471,6.596
	c0,7.983,1.388,9.024,12.148,9.024c6.595,0,15.273-2.083,19.093-4.165c5.554-3.471,8.33-3.471,13.885,0
	c3.818,2.083,12.496,4.165,19.092,4.165c11.107,0,12.148-1.041,12.148-9.719l-0.347-9.372l-4.513,8.331l-4.86,8.678l-2.083-10.761
	c-2.777-12.843-17.703-28.813-26.381-28.813C213.479,418.013,206.535,422.873,201.676,428.773L201.676,428.773z"/>
<path d="M588.366,346.101c0-4.857-5.9-2.774-12.148,4.165c-4.513,5.206-10.761,6.942-23.257,6.942
	c-9.025,0-16.662,1.042-16.662,2.43c0.348,1.735,3.817,7.289,8.331,12.843c5.207,6.248,9.025,8.332,10.414,5.901
	c4.165-6.941,9.025-0.347,9.025,12.148c0,10.762-0.695,11.803-10.414,11.803c-5.901,0-10.414,1.042-10.414,2.43
	c0.347,4.86,17.354,23.605,17.354,19.093c0-2.081,2.431-4.164,5.207-4.164c2.777,0,5.207,2.431,5.207,5.555
	c0,10.413,11.804,3.471,14.232-8.331c1.388-6.596,4.166-13.537,6.248-15.62c2.081-2.083,3.815-6.943,3.815-10.761
	c0-6.248-0.693-6.248-9.719,2.43l-9.372,9.025l1.388-19.786c0.694-10.762,3.125-22.91,5.901-26.729
	C586.284,352.002,588.366,347.489,588.366,346.101L588.366,346.101z"/>
<path d="M797.719,424.595c-4.859,5.9-9.025,13.538-9.025,17.009c0,3.473-1.388,7.639-3.471,8.68
	c-1.736,1.041-3.471-0.348-3.471-3.124c0-2.777-1.389-6.248-3.472-7.289c-2.083-1.388-3.472,1.735-3.472,6.596
	c0,7.983,1.389,9.024,12.147,9.024c6.595,0,15.272-2.083,19.093-4.165c5.555-3.472,8.33-3.472,13.887,0
	c3.816,2.083,12.494,4.165,19.092,4.165c11.105,0,12.146-1.041,12.146-9.721l-0.347-9.37l-4.515,8.329l-4.858,8.68l-2.083-10.762
	c-2.777-12.844-17.703-28.813-26.381-28.813C809.521,413.834,802.578,418.694,797.719,424.595L797.719,424.595z"/>
<path d="M761.926,384.81c0,2.083,1.736,4.86,3.471,5.901c2.084,1.041,3.473,8.331,3.473,15.967c0,9.719,1.389,13.538,5.207,13.538
	c3.471,0,5.207-3.471,5.207-10.414c0-5.899,1.389-10.414,3.124-10.414c1.388,0,2.083,3.818,1.041,8.68
	c-2.083,11.454,6.248,14.577,18.396,6.596c8.331-5.555,9.719-5.555,22.217,0.347c15.619,6.941,22.563,4.514,20.133-7.289
	c-0.693-4.513,0-8.331,1.389-8.331c1.734,0,3.125,4.86,3.125,10.763c0,14.578,7.982,11.455,10.761-4.165
	c1.39-6.597,3.472-14.928,4.86-18.743c2.775-6.596,2.775-6.596-4.166-1.041c-3.817,3.471-11.107,6.248-15.969,6.248
	c-10.064,0-11.801,3.123-5.554,9.371c2.083,2.083,3.124,5.899,2.431,8.679c-1.041,2.43-4.164-0.694-7.288-7.638
	c-8.331-17.355-17.702-22.563-28.116-15.619c-4.166,2.774-9.721,9.371-12.149,14.229c-2.083,5.207-4.858,8.331-5.899,7.289
	s-0.349-5.207,2.083-9.023c3.472-6.597,2.775-7.288-5.554-7.288c-5.207,0-12.496-2.433-15.969-5.901
	c-3.471-3.124-6.248-3.816-6.248-1.734h-0.003L761.926,384.81L761.926,384.81z"/>
<path d="M208.622,362.241c-4.188,4.623-7.446,9.489-7.446,10.949c0,3.405-7.679,3.163-11.403-0.729
	c-2.558-2.433-3.024-2.189-1.628,1.46c0.698,2.433,1.396,8.759,1.396,14.112c0,5.108,1.164,9.488,2.327,9.488
	c1.396,0,2.327-2.677,2.327-6.082c0-4.38,1.163-6.084,4.653-6.084c2.56,0,5.353-1.703,6.05-3.649
	c0.931-2.19,4.189-5.354,7.445-7.056c7.446-4.138,14.894-1.218,19.082,7.056c1.629,3.164,4.188,5.109,6.049,4.38
	c2.328-0.974,3.258,0.729,3.258,5.108c0,3.895,1.396,6.325,3.49,6.325c2.56,0,3.49-2.676,3.49-9.488
	c0-5.354,0.698-11.681,1.396-14.112c1.397-3.65,0.931-3.894-1.629-1.46c-1.629,1.703-4.421,3.163-6.282,3.163
	c-3.491,0-9.774-5.84-9.774-9.246c0-2.919-10.237-12.652-13.263-12.652C216.999,353.725,212.578,357.618,208.622,362.241
	L208.622,362.241z"/>
<path d="M803.988,357.702c-4.188,4.623-7.445,9.49-7.445,10.949c0,3.405-7.68,3.163-11.402-0.729
	c-2.559-2.433-3.024-2.189-1.629,1.46c0.697,2.434,1.396,8.759,1.396,14.112c0,5.109,1.164,9.489,2.326,9.489
	c1.396,0,2.328-2.678,2.328-6.083c0-4.379,1.161-6.083,4.651-6.083c2.562,0,5.354-1.704,6.051-3.65
	c0.931-2.19,4.188-5.354,7.445-7.056c7.445-4.138,14.894-1.218,19.082,7.056c1.629,3.164,4.188,5.109,6.049,4.38
	c2.328-0.974,3.259,0.729,3.259,5.108c0,3.895,1.396,6.325,3.489,6.325c2.56,0,3.49-2.676,3.49-9.488
	c0-5.354,0.696-11.68,1.396-14.112c1.396-3.649,0.932-3.894-1.629-1.46c-1.629,1.703-4.422,3.163-6.281,3.163
	c-3.491,0-9.774-5.84-9.774-9.246c0-2.919-10.236-12.652-13.263-12.652C812.365,349.186,807.945,353.079,803.988,357.702
	L803.988,357.702z"/>
</svg>
