<?xml version="1.0" encoding="utf-8"?>
<!-- Generated by IcoMoon.io -->
<!DOCTYPE svg PUBLIC "-//W3C//DTD SVG 1.1//EN" "http://www.w3.org/Graphics/SVG/1.1/DTD/svg11.dtd">
<svg version="1.1" xmlns="http://www.w3.org/2000/svg" xmlns:xlink="http://www.w3.org/1999/xlink" width="1024" height="1024" viewBox="0 0 1024 1024"><g id="icomoon-ignore">
</g>
<path d="M500.545 265.546c-6.248 6.595-11.108 13.538-11.108 15.62 0 4.86-11.455 4.513-17.009-1.041-3.818-3.471-4.513-3.124-2.43 2.083 1.041 3.471 2.083 12.496 2.083 20.133 0 7.289 1.736 13.538 3.471 13.538 2.083 0 3.471-3.818 3.471-8.678 0-6.248 1.736-8.678 6.942-8.678 3.818 0 7.984-2.43 9.025-5.207 1.388-3.124 6.248-7.637 11.108-10.066 11.108-5.901 22.216-1.736 28.464 10.066 2.43 4.513 6.248 7.289 9.025 6.248 3.471-1.388 4.86 1.041 4.86 7.289 0 5.554 2.083 9.025 5.207 9.025 3.818 0 5.207-3.818 5.207-13.538 0-7.637 1.041-16.662 2.083-20.133 2.083-5.207 1.388-5.554-2.43-2.083-2.43 2.43-6.595 4.513-9.372 4.513-5.207 0-14.579-8.331-14.579-13.191 0-4.165-15.273-18.050-19.786-18.050-1.736 0-8.331 5.554-14.232 12.149z"></path>
<path d="M444.312 346.424c0 1.388 2.083 5.901 4.86 9.372 2.777 3.818 5.207 15.967 5.901 26.728l1.388 19.786-9.372-9.025c-9.025-8.678-9.719-8.678-9.719-2.43 0 3.818 1.736 8.678 3.818 10.761s4.86 9.025 6.248 15.62c2.43 11.802 14.232 18.744 14.232 8.331 0-3.124 2.43-5.554 5.207-5.554s5.207 2.083 5.207 4.165c0 4.513 17.009-14.232 17.356-19.092 0-1.388-4.513-2.43-10.414-2.43-9.719 0-10.414-1.041-10.414-11.802 0-12.496 4.86-19.092 9.025-12.149 1.388 2.43 5.207 0.347 10.414-5.901 4.513-5.554 7.984-11.108 8.331-12.843 0-1.388-7.637-2.43-16.662-2.43-12.496 0-18.744-1.736-23.257-6.942-6.248-6.942-12.149-9.025-12.149-4.165z"></path>
<path d="M504.711 360.656c-5.901 3.471-13.538 12.496-17.009 19.786-4.86 9.719-6.942 11.802-7.984 7.289-1.736-9.025-7.637-6.942-7.637 2.777 0 7.637 1.388 8.678 11.802 8.678 6.248 0 15.967-2.083 21.174-4.86 8.678-4.513 11.108-4.513 19.439 0 5.207 2.777 15.273 4.86 22.216 4.86 10.761 0 12.149-1.041 12.149-8.678 0-9.719-5.901-11.802-7.637-2.777-1.041 4.513-3.124 2.777-6.942-6.248-4.513-10.066-21.868-27.422-27.769-27.422-0.347 0-5.901 3.124-11.802 6.595z"></path>
<path d="M166.617 391.55c0 2.083 1.736 4.86 3.471 5.901 2.083 1.041 3.471 8.331 3.471 15.967 0 9.719 1.388 13.538 5.207 13.538 3.471 0 5.207-3.471 5.207-10.414 0-5.901 1.388-10.414 3.124-10.414 1.388 0 2.083 3.818 1.041 8.678-2.083 11.455 6.248 14.579 18.397 6.595 8.331-5.554 9.719-5.554 22.216 0.347 15.62 6.942 22.563 4.513 20.133-7.289-0.694-4.513 0-8.331 1.388-8.331 1.736 0 3.124 4.86 3.124 10.761 0 14.579 7.984 11.455 10.761-4.165 1.388-6.595 3.471-14.926 4.86-18.744 2.777-6.595 2.777-6.595-4.165-1.041-3.818 3.471-11.108 6.248-15.967 6.248-10.066 0-11.802 3.124-5.554 9.372 2.083 2.083 3.124 5.901 2.43 8.678-1.041 2.43-4.165-0.694-7.289-7.637-8.331-17.356-17.703-22.563-28.117-15.62-4.165 2.777-9.719 9.372-12.149 14.232-2.083 5.207-4.86 8.331-5.901 7.289s-0.347-5.207 2.083-9.025c3.471-6.595 2.777-7.289-5.554-7.289-5.207 0-12.496-2.43-15.967-5.901-3.471-3.124-6.248-3.818-6.248-1.736z"></path>
<path d="M497.074 404.393c-5.554 4.86-13.191 14.579-16.315 21.521-5.901 12.149-6.248 12.496-9.025 5.207-4.165-11.455-6.595-9.372-6.595 6.595v14.232l20.133-2.083c10.761-1.041 23.604-2.083 28.464-2.083s17.703 1.041 28.811 2.083l19.786 2.083-0.347-15.273c0-13.191-0.347-13.885-3.471-6.248-3.471 8.331-3.471 8.331-11.802-6.595-16.315-28.464-31.588-34.712-49.638-19.439z"></path>
<path d="M159.675 421.055c0 3.124 1.736 6.595 3.471 7.637 2.083 1.041 3.471 5.207 3.471 9.025 0 3.471 1.736 6.595 4.165 6.595 2.083 0 2.777 1.041 1.736 2.083-1.388 1.388-4.513 0.347-7.637-2.083s-6.595-3.124-7.984-1.736c-1.388 1.388-0.347 3.471 2.083 4.165 2.43 1.041 3.818 7.637 3.471 17.703-0.347 14.579-0.694 14.926-1.736 3.818-0.694-6.942-4.513-15.62-8.331-18.744-6.595-6.248-6.595-5.901-6.595 28.811v35.406h46.167l-6.942-7.984c-7.984-7.984-12.149-29.505-6.248-30.546 2.083 0 3.124 4.513 2.43 10.414-1.041 10.066-0.694 10.761 10.414 10.761 6.248 0 14.579-2.43 18.050-5.207 5.901-4.513 7.637-4.513 14.579 0 4.513 2.777 12.843 5.207 18.744 5.207 8.678 0 10.414-1.388 10.066-7.984-0.347-5.554-0.694-6.248-2.083-1.736-2.43 9.719-6.942 7.289-9.372-4.86-2.43-12.843-14.579-27.075-23.257-27.075-9.372 0-20.48 11.108-25.687 26.034-3.818 11.108-5.207 12.496-6.942 7.637-1.736-3.818-0.347-8.678 3.124-12.496 7.637-8.331 6.942-10.761-3.124-10.761-7.984 0-8.678-1.388-8.678-14.232 0-12.149 0.694-13.885 6.595-11.802 4.165 1.041 7.289 0 8.678-3.471 1.388-3.818-0.347-5.207-7.289-5.207-5.207 0-12.843-3.471-17.356-7.637-6.595-6.248-7.984-6.595-7.984-1.736z"></path>
<path d="M584.895 426.956c-3.471 3.818-9.025 6.942-12.843 6.942-4.513 0-6.248 2.777-6.248 10.414 0 10.066-0.694 10.414-15.62 10.414h-15.967l6.248 8.678c5.554 7.984 8.331 8.678 28.117 7.984 11.802-0.694 21.521 0 21.521 1.388 0 1.736-4.513 2.777-10.414 2.777-10.066 0-10.414 0.694-10.414 15.62v15.62h31.241v-31.588c0-27.769-0.694-31.241-5.207-27.422s-5.207 2.777-5.207-4.513c0-4.86 1.736-10.066 3.471-11.108 4.165-2.777 4.513-12.149 0.694-12.149-1.736 0-5.901 3.124-9.372 6.942z"></path>
<path d="M270.753 443.965c0 1.736-3.124 4.513-6.942 5.554s-6.942 5.207-6.942 9.025c0 4.86-2.43 6.595-8.678 6.595-7.984 0-8.331 0.694-5.207 7.289 3.124 5.554 4.86 6.248 9.025 2.777 5.207-4.165 5.554-3.471 6.248 12.496 0.347 6.942-2.43 12.843-8.331 18.050l-8.678 7.637 23.604 0.347h23.257v-35.059c0-30.894-0.694-34.712-5.207-30.894-3.124 2.43-5.207 10.066-5.207 17.703s-1.388 13.538-3.124 13.538c-1.736 0-2.777-2.777-2.083-6.248 3.818-18.397 4.513-31.935 1.388-31.935-1.736 0-3.124 1.388-3.124 3.124z"></path>
<path d="M426.956 473.47v33.323h55.886l13.191-13.885c7.289-7.637 15.273-13.885 17.703-13.885s10.414 6.248 17.703 13.885c9.719 10.414 15.967 13.885 23.951 13.885 9.719 0 10.414-0.694 10.414-13.885 0-16.662-2.43-17.356-8.678-2.777-4.86 11.802-5.901 11.108-10.414-9.025-2.777-12.496-22.91-33.323-32.629-33.323-11.455 0-31.241 22.216-33.671 38.183-2.777 16.315-6.595 17.703-10.066 4.513-2.777-11.802-7.289-14.926-21.521-14.926-11.108 0-11.455-0.694-11.455-13.538 0-7.637-2.083-15.273-5.207-17.703-4.513-3.818-5.207-0.347-5.207 29.158z"></path>
<path d="M752.553 445.006c4.165 5.554 7.289 34.018 3.471 34.018-1.736 0-2.777-5.207-2.777-11.455 0-7.289-2.777-14.232-6.942-18.050-6.942-6.248-6.942-5.901-6.942 28.811v35.406h25.34l24.993-0.347-9.372-7.637c-6.942-5.554-9.719-11.108-9.719-18.397 0-12.843 3.124-16.662 9.025-11.455 3.124 2.777 5.207 1.736 8.331-3.471 3.124-6.595 2.777-7.289-5.207-7.289-5.554 0-8.678-2.083-8.678-5.554 0-3.124-3.471-8.331-7.637-12.149-9.025-7.289-19.439-9.025-13.885-2.43z"></path>
<path d="M861.896 447.436c-4.513 3.818-7.984 9.025-7.984 12.149 0 3.818-3.124 5.554-9.025 5.554-6.942 0-8.678 1.388-6.942 5.554 1.041 3.124 2.083 5.901 2.083 6.595s3.124 0.347 6.942-0.694c5.901-1.736 6.942 0 6.942 10.414 0 9.372-2.43 13.885-9.372 19.439l-9.719 6.942 25.34 0.347h24.993v-35.406c0-34.712 0-35.059-6.595-28.811-3.818 3.124-7.637 11.802-8.331 18.744l-1.388 12.496-0.347-14.579c-0.347-7.984 1.041-15.62 2.777-16.662 4.165-2.43 4.513-8.678 1.041-8.678-1.736 0.347-6.248 3.124-10.414 6.595z"></path>
<path d="M409.6 492.908v41.654h55.539v-24.298h-41.654v-25.34c0-21.174-1.041-25.687-6.942-29.505-6.942-4.165-6.942-3.471-6.942 37.489z"></path>
<path d="M610.235 456.114c-4.86 3.471-6.248 9.719-6.248 29.505v24.645h-41.654v24.298h55.539v-41.654c0-22.91-0.347-41.654-0.694-41.654-0.694 0-3.818 2.43-6.942 4.86z"></path>
<path d="M128.434 465.833c0 8.678-1.041 10.066-3.471 6.248-2.43-3.471-3.471 2.43-3.471 19.786 0 16.662 1.388 25.34 4.513 26.381 2.43 1.041 1.736 2.083-1.736 2.083-5.554 0.347-6.248-3.124-6.248-25.34 0-14.232-1.388-27.075-3.471-28.117-2.083-1.388-3.471 10.066-3.471 32.282v34.365l15.967 2.43c9.025 1.041 22.91 2.083 31.241 2.083 14.579 0 15.273-0.347 15.273-10.414s-0.694-10.414-15.62-10.414h-15.62v-27.075c0-22.91-1.041-27.422-6.942-31.241-6.248-3.818-6.942-3.471-6.942 6.942z"></path>
<path d="M796.984 465.486c-4.86 5.901-9.025 13.538-9.025 17.009s-1.388 7.637-3.471 8.678c-1.736 1.041-3.471-0.347-3.471-3.124s-1.388-6.248-3.471-7.289c-2.083-1.388-3.471 1.736-3.471 6.595 0 7.984 1.388 9.025 12.149 9.025 6.595 0 15.273-2.083 19.092-4.165 5.554-3.471 8.331-3.471 13.885 0 3.818 2.083 12.496 4.165 19.092 4.165 11.108 0 12.149-1.041 12.149-9.719l-0.347-9.372-4.513 8.331-4.86 8.678-2.083-10.761c-2.777-12.843-17.703-28.811-26.381-28.811-3.471 0-10.414 4.86-15.273 10.761z"></path>
<path d="M892.789 458.891c-2.43 2.43-4.165 14.926-4.165 31.241v27.075h-17.009c-10.414 0-18.050 1.736-19.092 4.165-1.736 3.471-2.43 3.471-4.165 0-1.041-2.083-3.818-4.165-5.901-4.165-2.777 0-2.43 1.388 0.347 4.165 4.86 4.86 5.901 18.050 1.041 15.273-1.388-1.041-3.818-6.595-4.86-11.802-2.777-12.843-18.397-31.935-26.728-31.935s-23.951 19.092-26.728 31.588c-2.083 11.108-6.595 13.191-9.025 3.818-1.041-3.124-1.736 0-2.083 6.942l-0.347 13.191 42.696 0.694c23.257 0 37.142 1.041 31.241 1.736l-11.455 1.388v59.010c0 36.795 1.388 58.663 3.471 58.663s3.471-12.843 3.471-31.241c0-30.894 0-31.241 8.678-31.241s8.678 0.347 8.678 31.241v31.241h31.241v-45.125c0-27.769-1.388-45.125-3.471-45.125-1.736 0-3.471-1.388-3.471-3.471 0-1.736 2.43-2.43 5.207-1.388 4.165 1.736 5.207-0.694 5.207-10.761 0-11.108-0.694-12.496-6.942-10.414-9.719 3.124-8.678-3.818 1.041-7.289 5.554-2.083 2.083-3.124-13.885-3.818-12.149-0.694-21.868-2.43-21.868-3.818s10.066-1.736 22.563-1.388l22.563 1.388v-42.001c0-23.257-0.347-42.001-1.041-42.001s-2.777 1.736-5.207 4.165z"></path>
<path d="M305.464 496.38v20.827h100.664v-41.654h-100.664v20.827z"></path>
<path d="M621.342 496.38v20.827h100.664v-41.654h-100.664v20.827z"></path>
<path d="M502.628 490.479c-5.207 4.165-13.538 16.315-18.050 26.728-5.554 12.496-8.678 16.315-8.678 11.455-0.694-15.62-7.289-11.802-7.289 3.818v15.967h90.251l-0.347-16.662c-0.347-15.967-0.347-15.967-4.513-6.595l-4.165 9.372-7.984-19.092c-6.942-16.315-20.827-32.976-27.769-32.976-1.041 0-6.248 3.471-11.455 7.984z"></path>
<path d="M205.147 500.198c-4.513 4.165-11.108 13.885-14.579 21.868-6.248 13.885-6.248 13.885-9.719 5.554-3.124-7.984-3.471-7.289-3.471 5.901l-0.347 14.926h79.837v-13.191c-0.347-12.496-0.347-12.843-4.86-4.513l-4.86 8.678-2.43-11.455c-2.43-12.149-20.48-35.059-27.422-35.059-2.43 0-7.984 3.471-12.149 7.289z"></path>
<path d="M734.156 544.976c1.041 1.736 4.86 3.471 7.984 3.818 3.818 0 4.165 1.041 1.736 2.083-3.471 1.041-4.513 16.662-4.513 60.399v58.663h38.183v-31.241c0-29.158 0.347-31.241 6.942-31.241s7.289-1.736 6.248-27.075l-1.041-26.728-11.108-1.041c-7.984-0.694-10.414-2.43-9.025-6.248s-2.083-4.86-18.050-4.86c-12.149 0-18.744 1.388-17.356 3.471z"></path>
<path d="M145.79 610.929v59.010h20.827v-62.481l9.719 0.347c7.984 0.694 8.331 0.694 1.736 2.083-7.637 1.388-7.984 3.124-7.984 30.894v29.158h20.827v-118.020h-45.125v59.010z"></path>
<path d="M202.717 556.431c-0.694 2.43-1.041 34.018-0.694 70.118l1.041 65.953 11.455 1.041 11.108 1.041v-142.666h-10.414c-5.901 0-11.455 2.083-12.496 4.513z"></path>
<path d="M235.346 554.348c-5.554 1.388-6.248 7.637-6.248 70.812 0 45.473 1.041 68.729 3.471 67.341 2.083-1.041 3.471-6.595 3.471-12.496 0-6.595 1.736-10.066 5.207-10.066 4.165 0 5.207-5.554 5.207-29.505s-1.041-29.505-5.207-29.505c-2.777 0-5.207-1.388-5.207-3.124s3.124-2.43 6.942-1.388c6.248 1.736 6.942 4.86 6.942 32.629v30.894h38.183v-118.020l-23.257 0.347c-13.191 0.347-26.381 1.041-29.505 2.083z"></path>
<path d="M292.968 556.778c-1.041 2.777-1.388 7.984-0.694 11.455 1.041 5.901 6.248 6.248 65.258 6.248h64.217v-20.827l-63.523-1.041c-53.109-0.694-63.523 0-65.258 4.165z"></path>
<path d="M426.956 610.929v59.010h8.678c8.678 0 8.678-0.347 8.678-31.241s0-31.241 8.678-31.241c8.678 0 8.678 0.347 8.678 31.241 0 18.397 1.388 31.241 3.471 31.241s3.471-21.868 3.471-59.010v-59.010h-41.654v59.010z"></path>
<path d="M500.545 622.037l1.041 70.465 11.455 1.041 11.108 1.041v-142.666h-24.298l0.694 70.118z"></path>
<path d="M558.861 610.929c0 37.142 1.388 59.010 3.471 59.010s3.471-12.843 3.471-31.241c0-30.894 0-31.241 8.678-31.241s8.678 0.347 8.678 31.241c0 30.894 0 31.241 8.678 31.241h8.678v-118.020h-41.654v59.010z"></path>
<path d="M603.986 564.068v12.149h128.434v-24.298h-128.434v12.149z"></path>
<path d="M801.844 622.731v71.506h24.298l-0.694-70.465-1.041-70.118-11.108-1.041-11.455-1.041v71.159z"></path>
<path d="M291.58 624.814c0 27.769 1.388 45.125 3.471 45.125s3.471-12.843 3.471-31.241v-31.241h20.48l1.388 31.935 1.041 32.282 0.694-32.282 0.694-31.935h20.48l1.388 31.935 1.041 32.282 0.694-32.282 0.694-31.935h20.48l1.388 31.935 1.041 32.282 0.694-32.282 0.694-31.935h20.48l1.388 31.935 1.041 32.282 0.694-32.282 0.694-31.935h20.827v31.241c0 18.397 1.388 31.241 3.471 31.241s3.471-17.356 3.471-45.125v-45.125h-131.905v45.125z"></path>
<path d="M603.986 624.814c0 27.769 1.388 45.125 3.471 45.125s3.471-12.843 3.471-31.241c0-30.894 0-31.241 8.678-31.241s8.678 0.347 8.678 31.241c0 18.397 1.388 31.241 3.471 31.241s3.471-12.843 3.471-31.241v-31.241h20.48l1.388 31.935 1.041 32.282 0.694-32.282 0.694-31.935h20.48l1.388 31.935 1.041 32.282 0.694-32.282 0.694-31.935h20.48l1.388 31.935 1.041 32.282 0.694-32.282 0.694-31.935h20.48l1.388 31.935c0.694 27.422 1.041 25.34 1.736-13.885l0.694-45.82h-128.434v45.125z"></path>
<path d="M298.522 677.228c0 2.083 1.736 6.595 3.471 10.414 3.471 5.901 7.984 6.595 55.539 6.595s52.068-0.694 55.539-6.595c7.289-13.885 5.207-14.232-55.539-14.232-39.572 0-59.010 1.388-59.010 3.818z"></path>
<path d="M607.458 675.146c0 0.694 1.736 5.554 4.165 10.414l3.818 8.678h112.466l3.818-8.678c2.43-4.86 4.165-9.719 4.165-10.414 0-1.041-28.811-1.736-64.217-1.736s-64.217 0.694-64.217 1.736z"></path>
<path d="M194.386 760.19v62.481h41.654v-124.963h-41.654v62.481z"></path>
<path d="M499.851 760.19v62.481h24.298v-124.963h-24.298v62.481z"></path>
<path d="M801.844 760.19v62.481h24.298v-124.963h-24.298v62.481z"></path>
<path d="M239.512 713.329v8.678h249.925v-17.356h-249.925v8.678z"></path>
<path d="M534.563 713.329v8.678h253.397v-17.356h-253.397v8.678z"></path>
<path d="M65.953 737.627v12.149h124.963v-24.298h-124.963v12.149z"></path>
<path d="M239.512 737.627v12.149h249.925v-24.298h-249.925v12.149z"></path>
<path d="M535.257 736.586l1.041 11.455 126.004 1.041 125.657 0.694v-24.298h-253.744l1.041 11.108z"></path>
<path d="M836.556 737.627v12.149h124.963v-24.298h-124.963v12.149z"></path>
<path d="M34.712 768.868v15.62h156.203v-31.241h-156.203v15.62z"></path>
<path d="M239.512 768.868v15.62h249.925v-31.241h-249.925v15.62z"></path>
<path d="M534.563 768.868v15.62h253.397v-31.241h-253.397v15.62z"></path>
<path d="M836.556 768.868v15.62h156.203v-31.241h-156.203v15.62z"></path>
<path d="M3.471 805.315v17.356h187.444v-34.712h-187.444v17.356z"></path>
<path d="M239.512 805.315v17.356h249.925v-34.712h-249.925v17.356z"></path>
<path d="M536.993 790.389c-1.388 1.041-2.43 9.025-2.43 17.356v14.926h253.397v-34.712h-124.268c-68.382 0-125.657 1.041-126.698 2.43z"></path>
<path d="M836.556 805.315v17.356h187.444v-34.712h-187.444v17.356z"></path>
</svg>
