<?xml version="1.0" encoding="utf-8"?>
<!-- Generator: Adobe Illustrator 16.0.0, SVG Export Plug-In . SVG Version: 6.00 Build 0)  -->
<!DOCTYPE svg PUBLIC "-//W3C//DTD SVG 1.1//EN" "http://www.w3.org/Graphics/SVG/1.1/DTD/svg11.dtd">
<svg version="1.1" id="Layer_1" xmlns="http://www.w3.org/2000/svg" xmlns:xlink="http://www.w3.org/1999/xlink" x="0px" y="0px"
	 width="1024px" height="1024px" viewBox="0 0 1024 1024" enable-background="new 0 0 1024 1024" xml:space="preserve">
<g id="icomoon-ignore">
</g>
<path d="M500.545,276.546c-6.248,6.595-11.107,13.538-11.107,15.62c0,4.86-11.455,4.513-17.01-1.041
	c-3.817-3.471-4.513-3.124-2.43,2.083c1.041,3.471,2.083,12.496,2.083,20.133c0,7.289,1.735,13.538,3.471,13.538
	c2.083,0,3.472-3.818,3.472-8.678c0-6.248,1.735-8.678,6.941-8.678c3.818,0,7.984-2.43,9.025-5.207
	c1.388-3.124,6.248-7.637,11.107-10.066c11.108-5.901,22.217-1.736,28.465,10.066c2.43,4.513,6.248,7.289,9.024,6.248
	c3.472-1.388,4.86,1.041,4.86,7.289c0,5.555,2.083,9.025,5.207,9.025c3.817,0,5.207-3.818,5.207-13.538
	c0-7.637,1.041-16.662,2.082-20.133c2.084-5.207,1.389-5.554-2.43-2.083c-2.43,2.43-6.595,4.513-9.371,4.513
	c-5.207,0-14.58-8.331-14.58-13.191c0-4.165-15.272-18.05-19.785-18.05C513.041,264.396,506.446,269.95,500.545,276.546
	L500.545,276.546z"/>
<path d="M444.313,346.424c0,1.389,2.082,5.901,4.859,9.372c2.777,3.818,5.207,15.967,5.901,26.729l1.388,19.786l-9.372-9.025
	c-9.024-8.678-9.719-8.678-9.719-2.43c0,3.817,1.735,8.678,3.817,10.761s4.86,9.024,6.248,15.62
	c2.431,11.802,14.232,18.744,14.232,8.331c0-3.124,2.43-5.555,5.207-5.555s5.207,2.083,5.207,4.165
	c0,4.514,17.009-14.231,17.355-19.092c0-1.388-4.513-2.43-10.414-2.43c-9.719,0-10.414-1.041-10.414-11.803
	c0-12.495,4.86-19.092,9.025-12.148c1.389,2.43,5.207,0.347,10.414-5.901c4.514-5.554,7.984-11.107,8.331-12.843
	c0-1.388-7.637-2.43-16.662-2.43c-12.496,0-18.744-1.736-23.257-6.942C450.213,343.647,444.313,341.564,444.313,346.424
	L444.313,346.424z"/>
<path d="M504.711,360.656c-5.9,3.471-13.538,12.496-17.009,19.786c-4.86,9.719-6.942,11.802-7.984,7.289
	c-1.735-9.025-7.637-6.942-7.637,2.776c0,7.637,1.388,8.678,11.802,8.678c6.248,0,15.967-2.082,21.174-4.859
	c8.678-4.513,11.108-4.513,19.439,0c5.207,2.777,15.273,4.859,22.216,4.859c10.761,0,12.149-1.041,12.149-8.678
	c0-9.719-5.901-11.802-7.637-2.776c-1.041,4.513-3.125,2.776-6.942-6.248c-4.513-10.066-21.868-27.423-27.77-27.423
	C516.166,354.061,510.612,357.186,504.711,360.656z"/>
<path d="M166.617,389.55c0,2.083,1.736,4.86,3.471,5.901c2.083,1.041,3.471,8.331,3.471,15.967c0,9.719,1.388,13.538,5.207,13.538
	c3.471,0,5.207-3.471,5.207-10.414c0-5.901,1.388-10.414,3.124-10.414c1.388,0,2.083,3.818,1.041,8.678
	c-2.083,11.455,6.248,14.579,18.397,6.596c8.331-5.555,9.719-5.555,22.216,0.347c15.62,6.941,22.563,4.513,20.133-7.289
	c-0.694-4.513,0-8.331,1.388-8.331c1.736,0,3.124,4.86,3.124,10.761c0,14.579,7.984,11.455,10.761-4.165
	c1.388-6.595,3.471-14.926,4.86-18.743c2.777-6.596,2.777-6.596-4.165-1.041c-3.818,3.471-11.108,6.248-15.967,6.248
	c-10.066,0-11.802,3.123-5.554,9.371c2.083,2.083,3.124,5.901,2.43,8.679c-1.041,2.43-4.165-0.694-7.289-7.638
	c-8.331-17.355-17.703-22.563-28.117-15.619c-4.165,2.776-9.719,9.371-12.149,14.231c-2.083,5.207-4.86,8.331-5.901,7.289
	s-0.347-5.207,2.083-9.025c3.471-6.595,2.777-7.288-5.554-7.288c-5.207,0-12.496-2.431-15.967-5.901
	c-3.471-3.124-6.248-3.818-6.248-1.736H166.617z"/>
<path d="M497.074,404.393c-5.555,4.86-13.191,14.579-16.315,21.521c-5.901,12.148-6.248,12.496-9.024,5.207
	c-4.165-11.455-6.596-9.372-6.596,6.595v14.232l20.133-2.083c10.762-1.041,23.604-2.083,28.465-2.083
	c4.859,0,17.703,1.041,28.811,2.083l19.786,2.083l-0.347-15.273c0-13.19-0.348-13.885-3.471-6.248
	c-3.472,8.331-3.472,8.331-11.803-6.595C530.398,395.368,515.125,389.12,497.074,404.393L497.074,404.393z"/>
<path d="M159.675,421.055c0,3.124,1.736,6.596,3.471,7.638c2.083,1.041,3.471,5.207,3.471,9.024c0,3.471,1.736,6.596,4.165,6.596
	c2.083,0,2.777,1.04,1.736,2.082c-1.388,1.389-4.513,0.348-7.637-2.082c-3.124-2.431-6.595-3.125-7.984-1.736
	c-1.388,1.388-0.347,3.471,2.083,4.165c2.43,1.041,3.818,7.637,3.471,17.703c-0.347,14.579-0.694,14.926-1.736,3.817
	c-0.694-6.941-4.513-15.62-8.331-18.744c-6.595-6.248-6.595-5.9-6.595,28.812v35.406h46.167l-6.942-7.984
	c-7.984-7.984-12.149-29.505-6.248-30.546c2.083,0,3.124,4.513,2.43,10.414c-1.041,10.065-0.694,10.761,10.414,10.761
	c6.248,0,14.579-2.43,18.05-5.207c5.901-4.513,7.637-4.513,14.579,0c4.513,2.777,12.843,5.207,18.744,5.207
	c8.678,0,10.414-1.388,10.066-7.983c-0.347-5.555-0.694-6.248-2.083-1.736c-2.43,9.719-6.942,7.289-9.372-4.86
	c-2.43-12.843-14.579-27.075-23.257-27.075c-9.372,0-20.48,11.108-25.687,26.034c-3.818,11.108-5.207,12.496-6.942,7.638
	c-1.736-3.818-0.347-8.679,3.124-12.496c7.637-8.331,6.942-10.762-3.124-10.762c-7.984,0-8.678-1.388-8.678-14.231
	c0-12.149,0.694-13.886,6.595-11.802c4.165,1.041,7.289,0,8.678-3.472c1.388-3.817-0.347-5.207-7.289-5.207
	c-5.207,0-12.843-3.471-17.356-7.637C161.063,416.542,159.674,416.195,159.675,421.055L159.675,421.055z"/>
<path d="M584.895,426.956c-3.471,3.818-9.024,6.942-12.843,6.942c-4.513,0-6.248,2.776-6.248,10.414
	c0,10.065-0.693,10.413-15.62,10.413h-15.967l6.248,8.679c5.555,7.983,8.331,8.678,28.117,7.983c11.802-0.693,21.521,0,21.521,1.389
	c0,1.735-4.514,2.776-10.414,2.776c-10.066,0-10.414,0.694-10.414,15.62v15.62h31.24v-31.588c0-27.77-0.693-31.241-5.207-27.422
	c-4.513,3.818-5.207,2.776-5.207-4.514c0-4.859,1.736-10.065,3.472-11.107c4.165-2.777,4.513-12.149,0.694-12.149
	C592.531,420.013,588.366,423.137,584.895,426.956L584.895,426.956z"/>
<path d="M270.753,443.965c0,1.736-3.124,4.514-6.942,5.554c-3.818,1.041-6.942,5.207-6.942,9.025c0,4.86-2.43,6.595-8.678,6.595
	c-7.984,0-8.331,0.694-5.207,7.289c3.124,5.555,4.86,6.248,9.025,2.777c5.207-4.165,5.554-3.471,6.248,12.496
	c0.347,6.941-2.43,12.843-8.331,18.05l-8.678,7.637l23.604,0.348h23.257v-35.06c0-30.894-0.694-34.712-5.207-30.894
	c-3.124,2.43-5.207,10.065-5.207,17.703c0,7.637-1.388,13.538-3.124,13.538c-1.736,0-2.777-2.777-2.083-6.248
	c3.818-18.397,4.513-31.936,1.388-31.936C272.14,440.84,270.752,442.229,270.753,443.965L270.753,443.965z"/>
<path d="M426.956,473.47v33.323h55.886l13.191-13.885c7.289-7.637,15.272-13.885,17.703-13.885c2.43,0,10.414,6.248,17.703,13.885
	c9.719,10.414,15.967,13.885,23.95,13.885c9.72,0,10.414-0.694,10.414-13.885c0-16.662-2.43-17.356-8.678-2.777
	c-4.86,11.802-5.901,11.108-10.414-9.025c-2.776-12.495-22.91-33.322-32.629-33.322c-11.455,0-31.241,22.216-33.671,38.183
	c-2.777,16.315-6.596,17.703-10.066,4.513c-2.777-11.802-7.289-14.926-21.521-14.926c-11.108,0-11.455-0.693-11.455-13.538
	c0-7.637-2.083-15.272-5.207-17.702C427.65,440.494,426.956,443.965,426.956,473.47L426.956,473.47z"/>
<path d="M752.553,445.006c4.165,5.554,7.289,34.019,3.471,34.019c-1.735,0-2.776-5.207-2.776-11.455
	c0-7.289-2.777-14.232-6.942-18.05c-6.941-6.248-6.941-5.901-6.941,28.811v35.406h25.34l24.993-0.348l-9.372-7.637
	c-6.942-5.554-9.719-11.107-9.719-18.396c0-12.844,3.123-16.662,9.024-11.455c3.124,2.776,5.207,1.735,8.331-3.472
	c3.124-6.595,2.777-7.289-5.207-7.289c-5.554,0-8.678-2.083-8.678-5.554c0-3.124-3.471-8.331-7.637-12.148
	C757.414,440.148,747,438.412,752.553,445.006L752.553,445.006z"/>
<path d="M861.896,447.436c-4.514,3.818-7.984,9.025-7.984,12.149c0,3.818-3.124,5.554-9.025,5.554c-6.941,0-8.678,1.389-6.941,5.555
	c1.041,3.124,2.082,5.9,2.082,6.595s3.125,0.347,6.942-0.694c5.901-1.735,6.942,0,6.942,10.414c0,9.372-2.43,13.885-9.372,19.439
	l-9.719,6.941l25.34,0.348h24.993V478.33c0-34.712,0-35.059-6.596-28.812c-3.817,3.124-7.637,11.803-8.33,18.744l-1.389,12.496
	l-0.347-14.579c-0.347-7.983,1.041-15.62,2.776-16.662c4.166-2.43,4.514-8.678,1.041-8.678
	C870.575,441.187,866.063,443.964,861.896,447.436L861.896,447.436z"/>
<path d="M409.6,492.908v41.654h55.539v-24.299h-41.653v-25.34c0-21.174-1.041-25.687-6.942-29.505
	c-6.941-4.165-6.941-3.471-6.941,37.489H409.6z"/>
<path d="M610.234,456.114c-4.859,3.471-6.247,9.719-6.247,29.505v24.645h-41.654v24.299h55.539v-41.654
	c0-22.91-0.347-41.654-0.694-41.654c-0.693,0-3.817,2.43-6.941,4.86H610.234z"/>
<path d="M128.434,465.833c0,8.678-1.041,10.066-3.471,6.248c-2.43-3.471-3.471,2.43-3.471,19.786c0,16.662,1.388,25.34,4.513,26.381
	c2.43,1.041,1.736,2.083-1.736,2.083c-5.554,0.347-6.248-3.124-6.248-25.34c0-14.232-1.388-27.075-3.471-28.117
	c-2.083-1.388-3.471,10.066-3.471,32.282v34.365l15.967,2.43c9.025,1.041,22.91,2.083,31.241,2.083
	c14.579,0,15.273-0.347,15.273-10.414s-0.694-10.414-15.62-10.414h-15.62v-27.075c0-22.91-1.041-27.422-6.942-31.241
	c-6.248-3.817-6.942-3.471-6.942,6.942L128.434,465.833z"/>
<path d="M796.984,465.486c-4.86,5.9-9.025,13.538-9.025,17.009s-1.388,7.637-3.471,8.678c-1.736,1.041-3.471-0.347-3.471-3.124
	s-1.389-6.248-3.472-7.289c-2.083-1.388-3.471,1.736-3.471,6.596c0,7.983,1.388,9.024,12.148,9.024
	c6.595,0,15.273-2.083,19.093-4.165c5.554-3.471,8.33-3.471,13.885,0c3.818,2.083,12.496,4.165,19.092,4.165
	c11.107,0,12.148-1.041,12.148-9.719l-0.347-9.372l-4.513,8.331l-4.86,8.678l-2.083-10.761
	c-2.777-12.843-17.703-28.812-26.381-28.812C808.787,454.726,801.844,459.586,796.984,465.486L796.984,465.486z"/>
<path d="M892.789,458.891c-2.43,2.431-4.165,14.927-4.165,31.241v27.075h-17.009c-10.414,0-18.051,1.736-19.092,4.165
	c-1.736,3.471-2.431,3.471-4.165,0c-1.041-2.083-3.818-4.165-5.901-4.165c-2.777,0-2.43,1.388,0.348,4.165
	c4.859,4.86,5.9,18.05,1.041,15.272c-1.389-1.041-3.818-6.595-4.86-11.802c-2.777-12.843-18.397-31.935-26.729-31.935
	s-23.95,19.092-26.728,31.588c-2.083,11.107-6.596,13.19-9.025,3.818c-1.041-3.125-1.736,0-2.083,6.941l-0.347,13.191l42.695,0.693
	c23.258,0,37.143,1.041,31.241,1.736l-11.454,1.388v59.011c0,36.795,1.388,58.662,3.471,58.662s3.471-12.843,3.471-31.24
	c0-30.895,0-31.241,8.678-31.241s8.678,0.347,8.678,31.241v31.24h31.241v-45.125c0-27.769-1.388-45.125-3.471-45.125
	c-1.736,0-3.471-1.388-3.471-3.471c0-1.736,2.43-2.43,5.206-1.388c4.166,1.736,5.207-0.694,5.207-10.761
	c0-11.108-0.693-12.496-6.941-10.414c-9.719,3.124-8.678-3.818,1.041-7.289c5.554-2.083,2.083-3.124-13.885-3.818
	c-12.149-0.693-21.868-2.43-21.868-3.818c0-1.388,10.065-1.735,22.563-1.388l22.563,1.388v-42c0-23.258-0.348-42.002-1.041-42.002
	c-0.694,0-2.777,1.736-5.207,4.165L892.789,458.891z"/>
<path d="M305.464,496.38v20.827h100.664v-41.654H305.464V496.38z"/>
<path d="M621.342,496.38v20.827h100.664v-41.654H621.342V496.38z"/>
<path d="M502.628,490.479c-5.207,4.166-13.538,16.315-18.05,26.729c-5.555,12.496-8.678,16.315-8.678,11.455
	c-0.694-15.62-7.289-11.802-7.289,3.818v15.967h90.251l-0.347-16.662c-0.348-15.967-0.348-15.967-4.514-6.595l-4.165,9.372
	l-7.983-19.093c-6.942-16.314-20.828-32.976-27.77-32.976C513.043,482.494,507.836,485.965,502.628,490.479L502.628,490.479z"/>
<path d="M205.147,500.198c-4.513,4.165-11.108,13.885-14.579,21.868c-6.248,13.885-6.248,13.885-9.719,5.554
	c-3.124-7.984-3.471-7.289-3.471,5.901l-0.347,14.926h79.837v-13.191c-0.347-12.496-0.347-12.843-4.86-4.513l-4.86,8.678
	l-2.43-11.455c-2.43-12.148-20.479-35.059-27.422-35.059c-2.43,0-7.984,3.471-12.149,7.289V500.198z"/>
<path d="M734.156,544.976c1.041,1.736,4.859,3.472,7.984,3.818c3.817,0,4.164,1.041,1.735,2.083
	c-3.471,1.041-4.513,16.662-4.513,60.399v58.663h38.183v-31.241c0-29.158,0.347-31.241,6.942-31.241
	c6.595,0,7.289-1.736,6.248-27.075l-1.041-26.728l-11.108-1.041c-7.983-0.694-10.414-2.431-9.024-6.248
	c1.389-3.818-2.084-4.86-18.051-4.86C739.363,541.505,732.768,542.893,734.156,544.976L734.156,544.976z"/>
<path d="M145.79,610.929v59.011h20.827v-62.481l9.719,0.347c7.984,0.694,8.331,0.694,1.736,2.083
	c-7.637,1.389-7.984,3.124-7.984,30.895v29.158h20.827V551.92H145.79V610.929L145.79,610.929z"/>
<path d="M202.717,556.431c-0.694,2.431-1.041,34.019-0.694,70.118l1.041,65.953l11.455,1.041l11.108,1.041V551.918h-10.414
	C209.312,551.918,203.758,554.001,202.717,556.431z"/>
<path d="M235.346,554.348c-5.554,1.389-6.248,7.638-6.248,70.813c0,45.473,1.041,68.729,3.471,67.341
	c2.083-1.041,3.471-6.595,3.471-12.496c0-6.595,1.736-10.065,5.207-10.065c4.165,0,5.207-5.555,5.207-29.506
	c0-23.95-1.041-29.505-5.207-29.505c-2.777,0-5.207-1.388-5.207-3.124c0-1.735,3.124-2.43,6.942-1.388
	c6.248,1.736,6.942,4.86,6.942,32.629v30.895h38.183V551.92l-23.257,0.347c-13.191,0.348-26.381,1.041-29.505,2.083L235.346,554.348
	z"/>
<path d="M292.968,556.778c-1.041,2.776-1.388,7.983-0.694,11.455c1.041,5.9,6.248,6.248,65.258,6.248h64.217v-20.827l-63.523-1.041
	C305.117,551.919,294.703,552.613,292.968,556.778L292.968,556.778z"/>
<path d="M426.956,610.929v59.011h8.678c8.679,0,8.679-0.348,8.679-31.241c0-30.895,0-31.241,8.678-31.241s8.678,0.347,8.678,31.241
	c0,18.396,1.389,31.241,3.471,31.241c2.084,0,3.472-21.868,3.472-59.011v-59.01h-41.654V610.929z"/>
<path d="M500.545,622.037l1.041,70.465l11.455,1.041l11.107,1.041V551.918h-24.297L500.545,622.037L500.545,622.037z"/>
<path d="M558.861,610.929c0,37.143,1.388,59.011,3.471,59.011s3.471-12.844,3.471-31.241c0-30.895,0-31.241,8.678-31.241
	c8.679,0,8.679,0.347,8.679,31.241c0,30.894,0,31.241,8.678,31.241h8.678V551.919h-41.653V610.929L558.861,610.929z"/>
<path d="M603.986,564.068v12.148H732.42v-24.298H603.986V564.068z"/>
<path d="M801.844,622.731v71.506h24.299l-0.694-70.466l-1.041-70.117l-11.108-1.041l-11.455-1.041V622.731L801.844,622.731z"/>
<path d="M291.58,624.814c0,27.769,1.388,45.125,3.471,45.125s3.471-12.844,3.471-31.241v-31.241h20.48l1.388,31.935l1.041,32.282
	l0.694-32.282l0.694-31.935h20.48l1.388,31.935l1.041,32.282l0.694-32.282l0.694-31.935h20.479l1.388,31.935l1.041,32.282
	l0.694-32.282l0.694-31.935h20.48l1.388,31.935l1.041,32.282l0.694-32.282l0.694-31.935h20.827v31.241
	c0,18.396,1.388,31.241,3.471,31.241s3.471-17.356,3.471-45.125v-45.125H291.574v45.125H291.58z"/>
<path d="M603.986,624.814c0,27.769,1.388,45.125,3.471,45.125s3.471-12.844,3.471-31.241c0-30.895,0-31.241,8.678-31.241
	c8.679,0,8.679,0.347,8.679,31.241c0,18.396,1.388,31.241,3.471,31.241s3.472-12.844,3.472-31.241v-31.241h20.479l1.388,31.935
	l1.041,32.282l0.694-32.282l0.694-31.935h20.479l1.388,31.935l1.041,32.282l0.694-32.282l0.694-31.935H704.3l1.388,31.935
	l1.041,32.282l0.694-32.282l0.694-31.935h20.479l1.388,31.935c0.694,27.423,1.041,25.341,1.736-13.885l0.694-45.82H603.98v45.125
	L603.986,624.814z"/>
<path d="M298.522,677.229c0,2.082,1.736,6.595,3.471,10.413c3.471,5.901,7.984,6.596,55.539,6.596
	c47.555,0,52.067-0.694,55.539-6.596c7.289-13.885,5.207-14.231-55.539-14.231C317.96,673.41,298.522,674.798,298.522,677.229z"/>
<path d="M607.458,675.146c0,0.693,1.736,5.554,4.165,10.413l3.818,8.679h112.466l3.817-8.679c2.431-4.859,4.165-9.719,4.165-10.413
	c0-1.041-28.811-1.736-64.217-1.736c-35.405,0-64.217,0.693-64.217,1.736H607.458z"/>
<path d="M194.386,760.19v62.48h41.654V697.708h-41.654V760.19L194.386,760.19z"/>
<path d="M499.852,760.19v62.48h24.297V697.708h-24.297V760.19L499.852,760.19z"/>
<path d="M801.844,760.19v62.48h24.299V697.708h-24.299V760.19L801.844,760.19z"/>
<path d="M239.512,713.329v8.678h249.926v-17.355H239.512V713.329L239.512,713.329z"/>
<path d="M534.563,713.329v8.678H787.96v-17.355H534.563V713.329L534.563,713.329z"/>
<path d="M65.953,737.627v12.149h124.963v-24.298H65.953V737.627z"/>
<path d="M239.512,737.627v12.149h249.926v-24.298H239.512V737.627z"/>
<path d="M535.257,736.586l1.041,11.455l126.004,1.041l125.657,0.694v-24.298H534.215L535.257,736.586L535.257,736.586z"/>
<path d="M836.557,737.627v12.149H961.52v-24.298H836.557V737.627z"/>
<path d="M34.712,768.868v15.62h156.203v-31.241H34.712V768.868L34.712,768.868z"/>
<path d="M239.512,768.868v15.62h249.926v-31.241H239.512V768.868L239.512,768.868z"/>
<path d="M534.563,768.868v15.62H787.96v-31.241H534.563V768.868L534.563,768.868z"/>
<path d="M836.557,768.868v15.62h156.202v-31.241H836.557V768.868L836.557,768.868z"/>
<path d="M3.471,805.315v17.355h187.444v-34.712H3.471V805.315L3.471,805.315z"/>
<path d="M239.512,805.315v17.355h249.926v-34.712H239.512V805.315L239.512,805.315z"/>
<path d="M536.993,790.389c-1.388,1.041-2.431,9.025-2.431,17.356v14.926H787.96v-34.712H663.691
	C595.311,787.959,538.035,789,536.993,790.389L536.993,790.389z"/>
<path d="M836.557,805.315v17.355H1024v-34.712H836.557V805.315L836.557,805.315z"/>
<path d="M504.711,310.656c-5.9,3.471-13.538,12.496-17.009,19.786c-4.86,9.719-6.942,11.802-7.984,7.289
	c-1.735-9.025-7.637-6.942-7.637,2.776c0,7.637,1.388,8.678,11.802,8.678c6.248,0,15.967-2.082,21.174-4.859
	c8.678-4.513,11.108-4.513,19.439,0c5.207,2.777,15.273,4.859,22.216,4.859c10.761,0,12.149-1.041,12.149-8.678
	c0-9.719-5.901-11.802-7.637-2.776c-1.041,4.513-3.125,2.776-6.942-6.248c-4.513-10.066-21.868-27.423-27.77-27.423
	C516.166,304.061,510.612,307.186,504.711,310.656z"/>
<path d="M201.676,428.773c-4.86,5.9-9.025,13.538-9.025,17.009s-1.388,7.637-3.471,8.678c-1.736,1.041-3.471-0.347-3.471-3.124
	s-1.389-6.248-3.472-7.289c-2.083-1.388-3.471,1.736-3.471,6.596c0,7.983,1.388,9.024,12.148,9.024
	c6.595,0,15.273-2.083,19.093-4.165c5.554-3.471,8.33-3.471,13.885,0c3.818,2.083,12.496,4.165,19.092,4.165
	c11.107,0,12.148-1.041,12.148-9.719l-0.347-9.372l-4.513,8.331l-4.86,8.678l-2.083-10.761
	c-2.777-12.843-17.703-28.812-26.381-28.812C213.479,418.013,206.535,422.873,201.676,428.773L201.676,428.773z"/>
<path d="M588.366,346.101c0-4.859-5.9-2.776-12.148,4.165c-4.513,5.206-10.761,6.942-23.257,6.942
	c-9.025,0-16.662,1.042-16.662,2.43c0.347,1.735,3.817,7.289,8.331,12.843c5.207,6.248,9.025,8.331,10.414,5.901
	c4.165-6.943,9.025-0.347,9.025,12.148c0,10.762-0.695,11.803-10.414,11.803c-5.901,0-10.414,1.042-10.414,2.43
	c0.347,4.86,17.355,23.605,17.355,19.092c0-2.082,2.43-4.165,5.207-4.165s5.207,2.431,5.207,5.555
	c0,10.413,11.802,3.471,14.232-8.331c1.388-6.596,4.166-13.537,6.248-15.62s3.817-6.943,3.817-10.761
	c0-6.248-0.694-6.248-9.719,2.43l-9.372,9.025l1.388-19.786c0.694-10.762,3.124-22.91,5.901-26.729
	C586.284,352.002,588.366,347.489,588.366,346.101L588.366,346.101z"/>
<path d="M797.719,422.595c-4.86,5.9-9.025,13.538-9.025,17.009s-1.388,7.637-3.471,8.678c-1.736,1.041-3.471-0.347-3.471-3.124
	s-1.389-6.248-3.472-7.289c-2.083-1.388-3.471,1.736-3.471,6.596c0,7.983,1.388,9.024,12.148,9.024
	c6.595,0,15.273-2.083,19.093-4.165c5.554-3.471,8.33-3.471,13.885,0c3.818,2.083,12.496,4.165,19.092,4.165
	c11.107,0,12.148-1.041,12.148-9.719l-0.347-9.372l-4.513,8.331l-4.86,8.678l-2.083-10.761
	c-2.777-12.843-17.703-28.812-26.381-28.812C809.521,411.834,802.578,416.694,797.719,422.595L797.719,422.595z"/>
<path d="M761.926,382.81c0,2.083,1.736,4.86,3.471,5.901c2.083,1.041,3.471,8.331,3.471,15.967c0,9.719,1.389,13.538,5.207,13.538
	c3.471,0,5.207-3.471,5.207-10.414c0-5.901,1.389-10.414,3.124-10.414c1.388,0,2.083,3.818,1.041,8.678
	c-2.083,11.455,6.248,14.579,18.397,6.596c8.331-5.555,9.719-5.555,22.216,0.347c15.62,6.941,22.563,4.513,20.133-7.289
	c-0.694-4.513,0-8.331,1.388-8.331c1.736,0,3.125,4.86,3.125,10.761c0,14.579,7.983,11.455,10.761-4.165
	c1.388-6.595,3.471-14.926,4.86-18.743c2.776-6.596,2.776-6.596-4.166-1.041c-3.817,3.471-11.107,6.248-15.967,6.248
	c-10.066,0-11.802,3.123-5.554,9.371c2.083,2.083,3.124,5.901,2.43,8.679c-1.041,2.43-4.165-0.694-7.289-7.638
	c-8.331-17.355-17.702-22.563-28.116-15.619c-4.166,2.776-9.72,9.371-12.149,14.231c-2.083,5.207-4.86,8.331-5.901,7.289
	s-0.347-5.207,2.083-9.025c3.472-6.595,2.777-7.288-5.554-7.288c-5.207,0-12.496-2.431-15.967-5.901
	c-3.471-3.124-6.248-3.818-6.248-1.736H761.926z"/>
</svg>
