<?xml version="1.0" encoding="utf-8"?>
<!-- Generator: Adobe Illustrator 16.0.0, SVG Export Plug-In . SVG Version: 6.00 Build 0)  -->
<!DOCTYPE svg PUBLIC "-//W3C//DTD SVG 1.1//EN" "http://www.w3.org/Graphics/SVG/1.1/DTD/svg11.dtd">
<svg version="1.1" id="Layer_1" xmlns="http://www.w3.org/2000/svg" xmlns:xlink="http://www.w3.org/1999/xlink" x="0px" y="0px"
	 width="1024px" height="1024px" viewBox="0 0 1024 1024" enable-background="new 0 0 1024 1024" xml:space="preserve">
<g id="icomoon-ignore">
</g>
<path d="M293.443,166.228c-1.353,1.417-2.406,2.909-2.406,3.357c0,1.044-2.48,0.97-3.684-0.224
	c-0.827-0.746-0.978-0.671-0.526,0.447c0.226,0.746,0.451,2.686,0.451,4.327c0,1.566,0.376,2.91,0.751,2.91
	c0.451,0,0.752-0.821,0.752-1.865c0-1.342,0.376-1.865,1.503-1.865c0.827,0,1.729-0.523,1.955-1.119
	c0.3-0.671,1.353-1.641,2.405-2.164c2.406-1.268,4.813-0.373,6.166,2.164c0.526,0.97,1.353,1.566,1.954,1.343
	c0.752-0.298,1.052,0.224,1.052,1.566c0,1.195,0.451,1.94,1.127,1.94c0.827,0,1.128-0.821,1.128-2.91
	c0-1.641,0.226-3.581,0.451-4.326c0.452-1.119,0.301-1.194-0.526-0.448c-0.526,0.522-1.429,0.97-2.03,0.97
	c-1.127,0-3.157-1.79-3.157-2.834c0-0.895-3.308-3.879-4.285-3.879C296.149,163.617,294.721,164.81,293.443,166.228L293.443,166.228
	z"/>
<path d="M281.264,181.245c0,0.298,0.451,1.268,1.052,2.014c0.602,0.82,1.128,3.431,1.278,5.744l0.301,4.252l-2.03-1.939
	c-1.955-1.865-2.105-1.865-2.105-0.522c0,0.82,0.376,1.865,0.827,2.313c0.451,0.447,1.052,1.938,1.353,3.357
	c0.527,2.536,3.083,4.028,3.083,1.791c0-0.672,0.526-1.195,1.127-1.195s1.128,0.448,1.128,0.896c0,0.97,3.684-3.058,3.759-4.103
	c0-0.298-0.978-0.522-2.255-0.522c-2.105,0-2.256-0.224-2.256-2.537c0-2.685,1.053-4.103,1.955-2.611
	c0.301,0.522,1.127,0.075,2.255-1.268c0.978-1.194,1.729-2.387,1.805-2.76c0-0.298-1.654-0.522-3.609-0.522
	c-2.707,0-4.06-0.373-5.037-1.492C282.542,180.648,281.264,180.2,281.264,181.245L281.264,181.245z"/>
<path d="M294.345,184.303c-1.278,0.746-2.932,2.686-3.684,4.252c-1.052,2.089-1.503,2.536-1.729,1.566
	c-0.375-1.939-1.654-1.492-1.654,0.596c0,1.642,0.3,1.865,2.556,1.865c1.354,0,3.458-0.447,4.586-1.043c1.88-0.97,2.406-0.97,4.21,0
	c1.127,0.597,3.308,1.043,4.812,1.043c2.331,0,2.631-0.223,2.631-1.865c0-2.088-1.278-2.537-1.654-0.596
	c-0.226,0.97-0.677,0.596-1.504-1.343c-0.977-2.163-4.736-5.893-6.015-5.893C296.826,182.886,295.623,183.557,294.345,184.303z"/>
<path d="M221.12,190.942c0,0.448,0.376,1.044,0.751,1.268c0.451,0.224,0.751,1.791,0.751,3.432c0,2.089,0.301,2.909,1.128,2.909
	c0.752,0,1.128-0.746,1.128-2.238c0-1.268,0.3-2.238,0.676-2.238c0.301,0,0.452,0.821,0.226,1.865
	c-0.451,2.462,1.354,3.133,3.985,1.418c1.804-1.195,2.104-1.195,4.812,0.075c3.383,1.491,4.887,0.97,4.36-1.566
	c-0.15-0.97,0-1.791,0.301-1.791c0.376,0,0.677,1.045,0.677,2.313c0,3.134,1.729,2.462,2.331-0.895
	c0.3-1.417,0.751-3.208,1.052-4.027c0.602-1.418,0.602-1.418-0.902-0.224c-0.827,0.746-2.406,1.343-3.458,1.343
	c-2.18,0-2.556,0.671-1.203,2.013c0.451,0.448,0.676,1.269,0.526,1.866c-0.226,0.522-0.902-0.149-1.579-1.642
	c-1.805-3.729-3.834-4.849-6.09-3.355c-0.902,0.596-2.105,2.013-2.631,3.058c-0.451,1.119-1.052,1.79-1.278,1.566
	s-0.075-1.119,0.451-1.939c0.751-1.417,0.602-1.566-1.203-1.566c-1.128,0-2.707-0.523-3.458-1.268
	c-0.752-0.671-1.354-0.821-1.354-0.373l0,0V190.942z"/>
<path d="M292.691,193.703c-1.203,1.044-2.857,3.133-3.534,4.625c-1.278,2.61-1.353,2.686-1.954,1.119
	c-0.902-2.462-1.43-2.015-1.43,1.417v3.059l4.36-0.448c2.332-0.224,5.112-0.448,6.166-0.448c1.052,0,3.833,0.224,6.24,0.448
	l4.286,0.448l-0.075-3.282c0-2.834-0.076-2.984-0.752-1.343c-0.752,1.79-0.752,1.79-2.556-1.417
	C299.909,191.763,296.601,190.42,292.691,193.703L292.691,193.703z"/>
<path d="M219.616,197.283c0,0.671,0.376,1.418,0.752,1.642c0.451,0.224,0.752,1.119,0.752,1.938c0,0.746,0.376,1.417,0.902,1.417
	c0.451,0,0.601,0.224,0.376,0.448c-0.301,0.299-0.978,0.075-1.654-0.448c-0.677-0.522-1.429-0.671-1.729-0.373
	c-0.301,0.298-0.075,0.746,0.451,0.896c0.526,0.224,0.827,1.641,0.752,3.804c-0.075,3.133-0.15,3.208-0.376,0.82
	c-0.15-1.491-0.978-3.356-1.805-4.028c-1.428-1.342-1.428-1.268-1.428,6.192v7.609h9.999l-1.503-1.716
	c-1.729-1.716-2.631-6.341-1.354-6.564c0.451,0,0.677,0.97,0.526,2.238c-0.225,2.163-0.15,2.313,2.256,2.313
	c1.353,0,3.157-0.522,3.909-1.119c1.278-0.97,1.654-0.97,3.157,0c0.978,0.597,2.782,1.119,4.06,1.119c1.88,0,2.256-0.298,2.18-1.715
	c-0.075-1.194-0.15-1.343-0.451-0.373c-0.526,2.088-1.503,1.566-2.03-1.045c-0.526-2.76-3.157-5.818-5.037-5.818
	c-2.03,0-4.436,2.387-5.563,5.594c-0.827,2.387-1.128,2.686-1.503,1.642c-0.376-0.82-0.076-1.866,0.676-2.686
	c1.654-1.79,1.503-2.313-0.676-2.313c-1.729,0-1.88-0.298-1.88-3.058c0-2.611,0.15-2.984,1.429-2.536
	c0.902,0.224,1.579,0,1.879-0.747c0.301-0.82-0.075-1.119-1.578-1.119c-1.128,0-2.782-0.746-3.759-1.641
	C219.917,196.313,219.616,196.239,219.616,197.283L219.616,197.283z"/>
<path d="M311.712,198.551c-0.752,0.82-1.954,1.492-2.782,1.492c-0.977,0-1.353,0.596-1.353,2.238c0,2.163-0.15,2.237-3.383,2.237
	h-3.458l1.354,1.866c1.203,1.715,1.805,1.865,6.09,1.715c2.556-0.148,4.661,0,4.661,0.299c0,0.372-0.978,0.596-2.256,0.596
	c-2.18,0-2.255,0.149-2.255,3.357v3.357h6.766v-6.789c0-5.968-0.15-6.714-1.127-5.893c-0.978,0.82-1.128,0.596-1.128-0.97
	c0-1.044,0.375-2.163,0.752-2.387c0.902-0.597,0.977-2.611,0.15-2.611C313.366,197.059,312.464,197.731,311.712,198.551
	L311.712,198.551z"/>
<path d="M243.674,202.207c0,0.373-0.677,0.97-1.503,1.193c-0.827,0.224-1.503,1.119-1.503,1.94c0,1.044-0.526,1.417-1.88,1.417
	c-1.729,0-1.804,0.149-1.127,1.566c0.676,1.194,1.052,1.343,1.955,0.597c1.128-0.895,1.203-0.746,1.354,2.686
	c0.075,1.491-0.526,2.76-1.805,3.879l-1.879,1.641l5.112,0.075h5.037v-7.535c0-6.64-0.15-7.46-1.127-6.64
	c-0.677,0.522-1.127,2.163-1.127,3.805c0,1.641-0.301,2.909-0.677,2.909s-0.602-0.597-0.451-1.343
	c0.827-3.953,0.978-6.863,0.301-6.863C243.975,201.535,243.674,201.833,243.674,202.207L243.674,202.207z"/>
<path d="M277.505,208.547v7.161h12.104l2.857-2.983c1.579-1.642,3.308-2.984,3.834-2.984s2.256,1.343,3.834,2.984
	c2.105,2.238,3.458,2.983,5.186,2.983c2.106,0,2.256-0.149,2.256-2.983c0-3.581-0.526-3.73-1.879-0.597
	c-1.052,2.536-1.278,2.387-2.255-1.94c-0.601-2.685-4.962-7.16-7.067-7.16c-2.481,0-6.766,4.774-7.292,8.206
	c-0.602,3.506-1.429,3.804-2.18,0.97c-0.601-2.537-1.579-3.208-4.661-3.208c-2.406,0-2.481-0.148-2.481-2.909
	c0-1.642-0.451-3.282-1.128-3.804C277.655,201.46,277.505,202.207,277.505,208.547L277.505,208.547z"/>
<path d="M348.023,202.43c0.902,1.194,1.579,7.312,0.752,7.312c-0.375,0-0.601-1.119-0.601-2.462c0-1.566-0.602-3.059-1.503-3.879
	c-1.503-1.342-1.503-1.268-1.503,6.192v7.609h5.488l5.413-0.075l-2.029-1.642c-1.504-1.193-2.105-2.387-2.105-3.953
	c0-2.761,0.677-3.581,1.954-2.462c0.677,0.596,1.128,0.372,1.804-0.747c0.677-1.417,0.602-1.566-1.127-1.566
	c-1.203,0-1.88-0.448-1.88-1.194c0-0.671-0.752-1.79-1.654-2.61C349.076,201.386,346.821,201.013,348.023,202.43L348.023,202.43z"/>
<path d="M371.706,202.953c-0.978,0.82-1.729,1.939-1.729,2.611c0,0.821-0.676,1.194-1.955,1.194c-1.503,0-1.879,0.299-1.503,1.194
	c0.226,0.671,0.451,1.268,0.451,1.417c0,0.149,0.677,0.074,1.503-0.149c1.278-0.372,1.503,0,1.503,2.238
	c0,2.014-0.526,2.984-2.03,4.178l-2.104,1.491l5.488,0.075h5.414v-7.61c0-7.459,0-7.534-1.429-6.192
	c-0.827,0.671-1.655,2.537-1.804,4.028l-0.301,2.686l-0.075-3.134c-0.076-1.715,0.226-3.356,0.601-3.58
	c0.902-0.522,0.979-1.865,0.226-1.865C373.585,201.61,372.608,202.207,371.706,202.953L371.706,202.953z"/>
<path d="M273.746,212.725v8.951h12.029v-5.223h-9.021v-5.445c0-4.55-0.226-5.52-1.504-6.341c-1.502-0.895-1.502-0.746-1.502,8.057
	L273.746,212.725L273.746,212.725z"/>
<path d="M317.2,204.818c-1.052,0.746-1.353,2.088-1.353,6.341v5.296h-9.021v5.222h12.029v-8.951c0-4.923-0.075-8.952-0.15-8.952
	C318.554,203.773,317.877,204.295,317.2,204.818L317.2,204.818L317.2,204.818z"/>
<path d="M212.85,206.906c0,1.865-0.226,2.164-0.752,1.343c-0.526-0.746-0.751,0.522-0.751,4.252c0,3.58,0.301,5.445,0.978,5.669
	c0.526,0.224,0.376,0.448-0.376,0.448c-1.203,0.075-1.354-0.671-1.354-5.446c0-3.059-0.301-5.818-0.752-6.042
	c-0.451-0.298-0.751,2.164-0.751,6.938v7.385l3.458,0.522c1.955,0.224,4.962,0.447,6.767,0.447c3.157,0,3.308-0.074,3.308-2.238
	s-0.151-2.238-3.384-2.238h-3.383v-5.819c0-4.923-0.226-5.893-1.503-6.714C213.001,204.594,212.851,204.668,212.85,206.906
	L212.85,206.906z"/>
<path d="M357.646,206.832c-1.053,1.268-1.955,2.91-1.955,3.655c0,0.746-0.3,1.642-0.751,1.865c-0.376,0.224-0.752-0.075-0.752-0.671
	c0-0.597-0.301-1.343-0.752-1.567c-0.451-0.298-0.751,0.374-0.751,1.418c0,1.715,0.3,1.939,2.63,1.939
	c1.428,0,3.308-0.448,4.135-0.896c1.203-0.746,1.804-0.746,3.008,0c0.826,0.448,2.706,0.896,4.135,0.896
	c2.405,0,2.63-0.224,2.63-2.089l-0.075-2.014l-0.978,1.791l-1.053,1.865l-0.451-2.313c-0.601-2.76-3.834-6.192-5.714-6.192
	C360.203,204.519,358.699,205.563,357.646,206.832L357.646,206.832z"/>
<path d="M378.396,205.415c-0.526,0.522-0.902,3.208-0.902,6.714v5.818h-3.684c-2.256,0-3.909,0.373-4.135,0.895
	c-0.376,0.746-0.527,0.746-0.902,0c-0.226-0.448-0.827-0.895-1.278-0.895c-0.602,0-0.526,0.298,0.075,0.895
	c1.053,1.044,1.278,3.879,0.226,3.282c-0.301-0.224-0.826-1.417-1.052-2.536c-0.602-2.76-3.984-6.863-5.789-6.863
	s-5.187,4.103-5.789,6.788c-0.451,2.387-1.429,2.834-1.955,0.82c-0.226-0.672-0.375,0-0.451,1.492l-0.075,2.834l9.246,0.148
	c5.038,0,8.045,0.224,6.767,0.373l-2.481,0.298v12.682c0,7.908,0.301,12.607,0.752,12.607s0.751-2.76,0.751-6.713
	c0-6.64,0-6.713,1.879-6.713c1.88,0,1.88,0.074,1.88,6.713v6.713h6.767v-9.697c0-5.968-0.301-9.697-0.752-9.697
	c-0.375,0-0.751-0.298-0.751-0.746c0-0.373,0.526-0.522,1.127-0.298c0.902,0.372,1.127-0.149,1.127-2.313
	c0-2.387-0.15-2.685-1.503-2.238c-2.105,0.671-1.88-0.82,0.225-1.566c1.204-0.448,0.451-0.671-3.007-0.821
	c-2.631-0.149-4.736-0.522-4.736-0.82s2.179-0.373,4.887-0.298l4.887,0.298v-9.026c0-4.999-0.076-9.026-0.225-9.026
	C379.375,204.519,378.924,204.892,378.396,205.415L378.396,205.415z"/>
<path d="M251.191,213.471v4.476h21.802v-8.952h-21.802V213.471z"/>
<path d="M319.605,213.471v4.476h21.802v-8.952h-21.802V213.471z"/>
<path d="M293.894,212.203c-1.127,0.896-2.932,3.506-3.909,5.744c-1.203,2.686-1.879,3.506-1.879,2.462
	c-0.15-3.357-1.579-2.536-1.579,0.821v3.431h19.547l-0.075-3.581c-0.076-3.431-0.076-3.431-0.979-1.417l-0.902,2.014l-1.729-4.104
	c-1.503-3.506-4.511-7.086-6.015-7.086C296.15,210.487,295.022,211.233,293.894,212.203L293.894,212.203z"/>
<path d="M229.465,214.292c-0.978,0.895-2.406,2.984-3.158,4.699c-1.353,2.984-1.353,2.984-2.105,1.194
	c-0.676-1.716-0.752-1.566-0.752,1.268l-0.075,3.208h17.292v-2.835c-0.075-2.686-0.075-2.76-1.053-0.97l-1.053,1.865l-0.526-2.462
	c-0.526-2.61-4.436-7.534-5.939-7.534C231.57,212.725,230.367,213.47,229.465,214.292L229.465,214.292z"/>
<path d="M344.039,223.915c0.226,0.373,1.053,0.747,1.729,0.82c0.826,0,0.901,0.224,0.375,0.447
	c-0.751,0.224-0.978,3.581-0.978,12.98v12.607h8.27v-6.714c0-6.266,0.076-6.714,1.503-6.714s1.578-0.373,1.353-5.818l-0.226-5.744
	l-2.405-0.224c-1.729-0.149-2.255-0.523-1.954-1.343c0.3-0.821-0.452-1.044-3.911-1.044
	C345.167,223.168,343.738,223.467,344.039,223.915L344.039,223.915z"/>
<path d="M216.609,238.088v12.682h4.511v-13.428l2.104,0.075c1.729,0.149,1.805,0.149,0.376,0.448
	c-1.654,0.299-1.729,0.671-1.729,6.64v6.267h4.511v-25.364h-9.773V238.088L216.609,238.088z"/>
<path d="M228.938,226.376c-0.15,0.523-0.226,7.312-0.15,15.069l0.226,14.174l2.481,0.224l2.406,0.224v-30.66h-2.255
	C230.367,225.406,229.164,225.854,228.938,226.376z"/>
<path d="M236.005,225.929c-1.203,0.299-1.353,1.642-1.353,15.218c0,9.772,0.226,14.77,0.751,14.472
	c0.451-0.224,0.752-1.417,0.752-2.686c0-1.417,0.376-2.163,1.127-2.163c0.902,0,1.128-1.194,1.128-6.341
	c0-5.146-0.226-6.341-1.128-6.341c-0.602,0-1.127-0.298-1.127-0.671c0-0.373,0.676-0.522,1.503-0.298
	c1.353,0.373,1.503,1.044,1.503,7.012v6.64h8.27v-25.364l-5.037,0.074C239.539,225.557,236.682,225.705,236.005,225.929
	L236.005,225.929z"/>
<path d="M248.485,226.451c-0.226,0.596-0.301,1.715-0.15,2.462c0.226,1.268,1.354,1.343,14.134,1.343h13.908v-4.476l-13.758-0.224
	C251.117,225.407,248.861,225.556,248.485,226.451L248.485,226.451z"/>
<path d="M277.505,238.088v12.682h1.879c1.88,0,1.88-0.075,1.88-6.714c0-6.64,0-6.714,1.88-6.714c1.879,0,1.879,0.075,1.879,6.714
	c0,3.954,0.302,6.714,0.752,6.714c0.452,0,0.752-4.699,0.752-12.682v-12.681h-9.022L277.505,238.088L277.505,238.088z"/>
<path d="M293.443,240.475l0.226,15.144l2.481,0.224l2.406,0.224v-30.66h-5.262L293.443,240.475L293.443,240.475z"/>
<path d="M306.073,238.088c0,7.983,0.301,12.682,0.752,12.682s0.751-2.761,0.751-6.714c0-6.64,0-6.714,1.879-6.714
	c1.88,0,1.88,0.075,1.88,6.714c0,6.64,0,6.714,1.879,6.714h1.88v-25.363h-9.021v12.681H306.073z"/>
<path d="M315.847,228.017v2.61h27.816v-5.222h-27.816V228.017z"/>
<path d="M358.699,240.625v15.367h5.263l-0.149-15.144l-0.226-15.069l-2.406-0.224l-2.48-0.224L358.699,240.625L358.699,240.625z"/>
<path d="M248.185,241.072c0,5.967,0.301,9.697,0.752,9.697s0.752-2.761,0.752-6.714v-6.714h4.436l0.3,6.863l0.226,6.938l0.15-6.938
	l0.15-6.863h4.436l0.3,6.863l0.226,6.938l0.15-6.938l0.15-6.863h4.436l0.3,6.863l0.226,6.938l0.15-6.938l0.15-6.863h4.436
	l0.301,6.863l0.225,6.938l0.15-6.938l0.15-6.863h4.511v6.714c0,3.954,0.301,6.714,0.752,6.714c0.451,0,0.752-3.73,0.752-9.697
	v-9.698h-28.568L248.185,241.072L248.185,241.072z"/>
<path d="M315.847,241.072c0,5.967,0.301,9.697,0.752,9.697s0.751-2.761,0.751-6.714c0-6.64,0-6.714,1.879-6.714
	c1.88,0,1.88,0.075,1.88,6.714c0,3.954,0.3,6.714,0.751,6.714s0.753-2.761,0.753-6.714v-6.714h4.435l0.301,6.863l0.225,6.938
	l0.15-6.938l0.15-6.863h4.435l0.301,6.863l0.226,6.938l0.15-6.938l0.15-6.863h4.435l0.3,6.863l0.226,6.938l0.15-6.938l0.15-6.863
	h4.436l0.301,6.863c0.15,5.894,0.226,5.447,0.376-2.984l0.15-9.847h-27.816L315.847,241.072L315.847,241.072z"/>
<path d="M249.688,252.336c0,0.448,0.376,1.418,0.751,2.238c0.751,1.269,1.729,1.418,12.029,1.418s11.276-0.149,12.029-1.418
	c1.579-2.983,1.128-3.058-12.029-3.058C253.898,251.516,249.688,251.814,249.688,252.336z"/>
<path d="M316.599,251.889c0,0.148,0.376,1.194,0.902,2.237l0.827,1.866h24.358l0.827-1.866c0.526-1.043,0.901-2.089,0.901-2.237
	c0-0.224-6.24-0.373-13.908-0.373C322.838,251.516,316.598,251.664,316.599,251.889L316.599,251.889z"/>
<path d="M227.134,270.165v13.427h9.021v-26.855h-9.021V270.165L227.134,270.165z"/>
<path d="M293.293,270.165v13.427h5.262v-26.855h-5.262V270.165L293.293,270.165z"/>
<path d="M358.699,270.165v13.427h5.263v-26.855h-5.263V270.165L358.699,270.165z"/>
<path d="M236.908,260.094v1.865h54.129v-3.729h-54.129V260.094L236.908,260.094z"/>
<path d="M300.811,260.094v1.865h54.882v-3.729h-54.882V260.094L300.811,260.094z"/>
<path d="M199.317,265.316v2.611h27.065v-5.222h-27.065V265.316z"/>
<path d="M236.908,265.316v2.611h54.129v-5.222h-54.129V265.316z"/>
<path d="M300.961,265.092l0.226,2.462l27.29,0.224l27.215,0.149v-5.222h-54.957L300.961,265.092L300.961,265.092z"/>
<path d="M366.217,265.316v2.611h27.065v-5.222h-27.065V265.316z"/>
<path d="M192.551,272.03v3.356h33.831v-6.714h-33.831V272.03L192.551,272.03z"/>
<path d="M236.908,272.03v3.356h54.129v-6.714h-54.129V272.03L236.908,272.03z"/>
<path d="M300.811,272.03v3.356h54.882v-6.714h-54.882V272.03L300.811,272.03z"/>
<path d="M366.217,272.03v3.356h33.831v-6.714h-33.831V272.03L366.217,272.03z"/>
<path d="M185.785,279.863v3.729h40.597v-7.46h-40.597V279.863L185.785,279.863z"/>
<path d="M236.908,279.863v3.729h54.129v-7.46h-54.129V279.863L236.908,279.863z"/>
<path d="M301.337,276.655c-0.3,0.224-0.526,1.939-0.526,3.73v3.208h54.882v-7.459h-26.915
	C313.968,276.133,301.563,276.356,301.337,276.655L301.337,276.655z"/>
<path d="M366.217,279.863v3.729h40.597v-7.46h-40.597V279.863L366.217,279.863z"/>
<path d="M294.345,173.558c-1.278,0.746-2.932,2.686-3.684,4.252c-1.052,2.089-1.503,2.536-1.729,1.566
	c-0.375-1.939-1.654-1.492-1.654,0.596c0,1.642,0.3,1.865,2.556,1.865c1.354,0,3.458-0.447,4.586-1.043c1.88-0.97,2.406-0.97,4.21,0
	c1.127,0.597,3.308,1.043,4.812,1.043c2.331,0,2.631-0.223,2.631-1.865c0-2.088-1.278-2.536-1.654-0.596
	c-0.226,0.97-0.677,0.596-1.504-1.343c-0.977-2.163-4.736-5.894-6.015-5.894C296.826,172.141,295.623,172.812,294.345,173.558z"/>
<path d="M228.713,198.942c-1.052,1.268-1.955,2.909-1.955,3.655c0,0.746-0.3,1.641-0.751,1.865
	c-0.376,0.224-0.752-0.075-0.752-0.672c0-0.597-0.301-1.343-0.752-1.566c-0.451-0.298-0.752,0.373-0.752,1.418
	c0,1.715,0.301,1.939,2.631,1.939c1.428,0,3.308-0.448,4.135-0.895c1.203-0.746,1.804-0.746,3.007,0
	c0.827,0.448,2.707,0.895,4.135,0.895c2.406,0,2.631-0.224,2.631-2.088l-0.075-2.014l-0.978,1.791l-1.053,1.865l-0.451-2.313
	c-0.602-2.76-3.834-6.192-5.714-6.192C231.27,196.629,229.766,197.674,228.713,198.942L228.713,198.942z"/>
<path d="M312.464,181.175c0-1.044-1.278-0.596-2.632,0.895c-0.977,1.119-2.33,1.492-5.037,1.492c-1.955,0-3.609,0.224-3.609,0.522
	c0.075,0.373,0.827,1.566,1.805,2.76c1.127,1.343,1.955,1.791,2.255,1.269c0.902-1.492,1.955-0.075,1.955,2.61
	c0,2.313-0.15,2.537-2.255,2.537c-1.278,0-2.255,0.224-2.255,0.522c0.075,1.045,3.758,5.073,3.758,4.104
	c0-0.447,0.527-0.895,1.127-0.895c0.602,0,1.128,0.522,1.128,1.194c0,2.238,2.557,0.746,3.083-1.791
	c0.3-1.417,0.902-2.909,1.353-3.357c0.451-0.447,0.827-1.492,0.827-2.313c0-1.343-0.15-1.343-2.105,0.522l-2.03,1.939l0.301-4.252
	c0.15-2.313,0.677-4.924,1.278-5.744C312.013,182.443,312.464,181.474,312.464,181.175L312.464,181.175z"/>
<path d="M357.806,198.044c-1.052,1.268-1.955,2.909-1.955,3.655c0,0.747-0.3,1.642-0.751,1.866
	c-0.376,0.224-0.752-0.075-0.752-0.672s-0.301-1.343-0.752-1.566c-0.451-0.298-0.752,0.373-0.752,1.418
	c0,1.715,0.301,1.939,2.631,1.939c1.428,0,3.308-0.448,4.135-0.896c1.204-0.746,1.805-0.746,3.008,0
	c0.827,0.448,2.706,0.896,4.135,0.896c2.405,0,2.631-0.224,2.631-2.089l-0.075-2.014l-0.978,1.79l-1.052,1.866l-0.451-2.313
	c-0.602-2.76-3.834-6.192-5.714-6.192C360.362,195.731,358.858,196.776,357.806,198.044L357.806,198.044z"/>
<path d="M350.054,189.494c0,0.447,0.376,1.044,0.752,1.268c0.451,0.224,0.752,1.79,0.752,3.431c0,2.089,0.301,2.91,1.128,2.91
	c0.751,0,1.127-0.746,1.127-2.238c0-1.268,0.301-2.238,0.677-2.238c0.3,0,0.451,0.82,0.225,1.865
	c-0.451,2.461,1.354,3.132,3.984,1.417c1.805-1.193,2.105-1.193,4.812,0.074c3.383,1.492,4.887,0.971,4.36-1.566
	c-0.15-0.97,0-1.79,0.301-1.79c0.375,0,0.677,1.045,0.677,2.313c0,3.133,1.729,2.462,2.33-0.895
	c0.301-1.418,0.752-3.208,1.053-4.028c0.601-1.417,0.601-1.417-0.903-0.224c-0.827,0.746-2.405,1.343-3.458,1.343
	c-2.179,0-2.556,0.671-1.203,2.014c0.451,0.448,0.677,1.268,0.526,1.865c-0.226,0.522-0.902-0.149-1.578-1.642
	c-1.805-3.729-3.834-4.849-6.09-3.356c-0.902,0.596-2.105,2.014-2.631,3.058c-0.452,1.119-1.052,1.791-1.278,1.566
	s-0.076-1.119,0.451-1.939c0.752-1.418,0.601-1.566-1.203-1.566c-1.128,0-2.707-0.523-3.458-1.269
	c-0.752-0.671-1.354-0.82-1.354-0.373h0L350.054,189.494L350.054,189.494z"/>
<path d="M230.217,184.644c-0.907,0.993-1.613,2.039-1.613,2.353c0,0.732-1.663,0.68-2.47-0.157c-0.554-0.522-0.654-0.47-0.353,0.314
	c0.151,0.522,0.303,1.882,0.303,3.033c0,1.097,0.252,2.039,0.504,2.039c0.302,0,0.504-0.576,0.504-1.308
	c0-0.941,0.252-1.307,1.008-1.307c0.555,0,1.159-0.366,1.311-0.785c0.201-0.47,0.907-1.15,1.612-1.516
	c1.612-0.889,3.226-0.262,4.133,1.516c0.353,0.68,0.907,1.098,1.31,0.941c0.504-0.209,0.706,0.157,0.706,1.098
	c0,0.837,0.303,1.359,0.756,1.359c0.555,0,0.756-0.576,0.756-2.04c0-1.15,0.151-2.51,0.302-3.033
	c0.303-0.784,0.202-0.836-0.353-0.314c-0.353,0.366-0.957,0.68-1.36,0.68c-0.756,0-2.117-1.255-2.117-1.987
	c0-0.627-2.217-2.719-2.873-2.719C232.032,182.813,231.074,183.65,230.217,184.644L230.217,184.644z"/>
<path d="M359.164,183.668c-0.907,0.993-1.612,2.04-1.612,2.353c0,0.731-1.664,0.68-2.47-0.157c-0.554-0.523-0.655-0.471-0.353,0.313
	c0.151,0.523,0.303,1.882,0.303,3.033c0,1.098,0.252,2.039,0.504,2.039c0.302,0,0.504-0.576,0.504-1.307
	c0-0.941,0.251-1.308,1.007-1.308c0.555,0,1.16-0.366,1.311-0.784c0.202-0.471,0.907-1.151,1.613-1.517
	c1.612-0.889,3.226-0.262,4.133,1.517c0.353,0.68,0.907,1.098,1.31,0.941c0.505-0.209,0.706,0.157,0.706,1.098
	c0,0.837,0.303,1.359,0.756,1.359c0.555,0,0.756-0.576,0.756-2.039c0-1.151,0.15-2.51,0.302-3.033
	c0.302-0.784,0.202-0.837-0.353-0.314c-0.353,0.366-0.958,0.68-1.36,0.68c-0.756,0-2.117-1.255-2.117-1.987
	c0-0.627-2.217-2.719-2.873-2.719C360.978,181.838,360.021,182.675,359.164,183.668L359.164,183.668z"/>
</svg>
